<?xml version="1.0" encoding="UTF-8"?>
<svg version="1.1" xmlns="http://www.w3.org/2000/svg" width="8059" height="2145">
<path d="M0 0 C3.50257375 0.00192769 7.00514251 0.00021359 10.50771612 -0.00144988 C20.80919996 -0.00631233 31.1106649 -0.00187317 41.41214633 0.00543904 C47.24352884 0.00949931 53.07491096 0.01130322 58.90629458 0.01290441 C114.78013971 0.03028666 170.64766353 0.17931471 226.51604056 1.03299165 C231.62308316 1.11080278 236.73017574 1.18163877 241.83738589 1.24749303 C328.304393 2.36901845 412.93365289 10.71683834 736.30027652 151.60296178 C739.01748909 153.92279544 741.78320707 156.15864644 744.57762027 158.38421178 C757.61734632 169.06825474 769.40613188 181.17879963 781.32762027 193.07171178 C781.96399417 193.70540685 782.60036807 194.33910192 783.25602603 194.99199986 C789.81213829 201.52718903 796.30184781 208.04505705 802.26512027 215.13421178 C803.21367084 216.21797065 804.16415042 217.30004463 805.11668277 218.38030553 C812.91720452 227.3239952 820.16369506 236.62932989 827.26512027 246.13421178 C827.75399722 246.78567174 828.24287417 247.4371317 828.74656558 248.10833287 C844.19300796 268.72991255 857.11333404 290.43704244 869.26512027 313.13421178 C869.75915347 314.05234654 870.25318667 314.97048131 870.76219058 315.91643834 C913.93047494 396.35476623 939.70277231 485.30895729 966.26512027 690.13421178 C966.30748813 691.02453099 966.34985599 691.91485021 966.39350772 692.83214879 C967.20279354 710.35159138 967.46521918 727.84736669 967.45262027 745.38421178 C967.45268069 746.69657811 967.45274112 748.00894444 967.45280337 749.36107945 C967.44659876 766.2351293 967.18796542 783.04561785 966.11302066 799.88665318 C966.01769191 801.3806186 965.92256126 802.87459667 965.82762027 804.36858678 C965.77967822 805.12066411 965.73173617 805.87274144 965.68234134 806.647609 C965.27120829 813.39476346 965.03784305 820.14375689 964.82762027 826.89983678 C962.28665132 908.23161089 950.32815728 986.22400616 923.26512027 1063.13421178 C922.86970035 1064.26101354 922.47428042 1065.38781529 922.06687808 1066.54876256 C892.17928988 1150.84336812 843.00286456 1229.13999677 781.92918277 1294.35686803 C780.08997431 1296.32128082 778.255688 1298.29023183 776.42137027 1300.25921178 C775.09872675 1301.67613347 773.7758136 1303.09280352 772.45262027 1304.50921178 C771.84249087 1305.16324986 771.23236148 1305.81728795 770.60374331 1306.49114537 C760.08677745 1317.71591519 760.08677745 1317.71591519 754.26512027 1322.63421178 C751.7089558 1324.83358847 749.29439077 1327.08360701 746.95262027 1329.50921178 C743.25347649 1333.27561272 739.18724817 1336.51614151 735.07762027 1339.82171178 C732.45546133 1341.97770913 729.94903458 1344.2098828 727.45262027 1346.50921178 C721.32576531 1352.07036339 714.82692867 1357.10525929 708.26512027 1362.13421178 C707.54066714 1362.69382604 706.81621402 1363.25344029 706.06980777 1363.83001256 C653.24225328 1404.55871399 594.18054045 1434.52019761 531.26512027 1456.13421178 C530.21501773 1456.50223912 529.16491519 1456.87026647 528.08299136 1457.24944615 C492.88661663 1469.52712314 455.99284862 1477.9184887 419.26512027 1484.13421178 C418.50294192 1484.26335973 417.74076358 1484.39250768 416.95548892 1484.5255692 C379.45371124 1490.83309758 341.68282791 1494.6102028 303.76512027 1497.32171178 C302.14067492 1497.43993291 302.14067492 1497.43993291 300.4834125 1497.56054235 C292.80409564 1498.11204424 285.12194756 1498.58858663 277.43461871 1499.01399541 C275.94876218 1499.09632977 274.46296272 1499.17969886 272.97721362 1499.26394963 C236.56298954 1501.31983495 200.15933781 1501.48248372 163.70056903 1501.60630643 C147.71556678 1501.66197083 131.7307017 1501.75363362 115.7458508 1501.8415947 C112.94681314 1501.85692122 110.14777406 1501.87196392 107.34873462 1501.88696027 C63.0692618 1502.12569861 18.79231169 1502.56977275 -25.48487973 1503.07171178 C-26.43865789 1503.08251476 -27.39243606 1503.09331774 -28.37511659 1503.10444808 C-128.01253092 1504.23480524 -227.6232917 1505.87086618 -365.54712033 1509.84638524 C-376.27635986 1510.23308304 -387.00029958 1510.22911475 -397.73487973 1510.13421178 C-397.20968041 1502.23471776 -396.43525303 1494.40559742 -395.42799497 1486.55364537 C-390.82053555 1450.55917298 -388.74070537 1414.30273134 -387.04737973 1378.07171178 C-386.98662259 1376.77948705 -386.92586545 1375.48726232 -386.86326718 1374.15587926 C-385.19279573 1338.11448817 -384.57636051 1302.13125237 -384.53427112 1266.05404913 C-384.5261291 1259.98029935 -384.51248091 1253.90656133 -384.49955869 1247.83282018 C-384.47798773 1237.35231293 -384.45974119 1226.87180348 -384.44395375 1216.39128613 C-384.42741341 1205.42053641 -384.40889073 1194.44979287 -384.38782048 1183.47905087 C-384.38584407 1182.44913818 -384.38584407 1182.44913818 -384.38382773 1181.39841917 C-384.37712403 1177.91033035 -384.37038587 1174.42224159 -384.36363447 1170.93415286 C-384.31609325 1146.34028205 -384.27284589 1121.74640542 -384.23219419 1097.15252233 C-384.19273471 1073.28598158 -384.15128641 1049.41944561 -384.10719419 1025.55291295 C-384.10583166 1024.81497058 -384.10446913 1024.07702821 -384.10306531 1023.31672394 C-384.08937787 1015.90482081 -384.07565053 1008.49291774 -384.06189397 1001.08101473 C-384.0338806 985.9871905 -384.0061333 970.89336578 -383.97854733 955.79954076 C-383.97664504 954.75895649 -383.97664504 954.75895649 -383.97470431 953.69735031 C-383.89029874 907.50964525 -383.81211154 861.32192933 -383.73487973 815.13421178 C-381.81093013 815.28823655 -379.88712387 815.44405253 -377.9633801 815.60062718 C-376.35637817 815.73049472 -376.35637817 815.73049472 -374.71691155 815.86298585 C-368.99737259 816.38319736 -363.41980171 817.55601136 -357.79737973 818.69671178 C-357.15481229 818.82637334 -356.51224484 818.9560349 -355.85020566 819.0896256 C-265.57872265 837.43330442 -179.71023052 883.42019079 -106.67628598 945.62639928 C-103.90034033 947.99314179 -101.07924781 950.28803209 -98.23487973 952.57171178 C-93.47996923 956.43811345 -88.96826328 960.51950045 -84.50050473 964.71013951 C-81.72542315 967.3117785 -78.91538382 969.85111216 -76.03077817 972.33123326 C-71.77228772 976.05093978 -67.75331661 979.97108969 -63.76222348 983.97405553 C-62.67210713 985.06273679 -62.67210713 985.06273679 -61.55996823 986.17341161 C-60.03525677 987.69744734 -58.51178823 989.22272747 -56.9895184 990.74920201 C-54.67854082 993.06553641 -52.36227202 995.37648255 -50.04542661 997.68694615 C-48.55487153 999.17816212 -47.06462673 1000.66968831 -45.57472348 1002.16155553 C-44.89224042 1002.84201436 -44.20975736 1003.52247319 -43.50659299 1004.22355199 C-39.05084032 1008.70076892 -34.83967427 1013.33456557 -30.73487973 1018.13421178 C-30.23240342 1018.54682476 -29.72992711 1018.95943774 -29.21222425 1019.38455415 C-24.99947883 1023.25102047 -24.28380282 1026.50230159 -24.01335263 1032.16410375 C-23.97364008 1035.07482238 -24.01080486 1037.98128042 -24.05372739 1040.89178014 C-24.05542125 1042.49870291 -24.05446706 1044.10563032 -24.05107236 1045.7125504 C-24.04935463 1050.06158053 -24.08456765 1054.4096127 -24.1265161 1058.75841141 C-24.16408775 1063.30806994 -24.16755352 1067.85775273 -24.17466855 1072.40754247 C-24.19329855 1081.01715105 -24.24251042 1089.62630114 -24.30276549 1098.23570806 C-24.36988822 1108.03973021 -24.4028341 1117.84377454 -24.4329381 1127.64796937 C-24.49561122 1147.81030582 -24.60111022 1167.97222989 -24.73487973 1188.13421178 C7.42669937 1188.0518872 39.5882318 1187.95969507 71.74974253 1187.85416017 C75.56639165 1187.84164471 79.38304103 1187.8292114 83.19969058 1187.81682897 C83.95936002 1187.81436297 84.71902946 1187.81189698 85.50171919 1187.80935626 C97.72310623 1187.7698788 109.94450224 1187.73702225 122.16591506 1187.70671196 C134.7521838 1187.67534566 147.3384153 1187.636634 159.92464197 1187.59142172 C166.97474001 1187.56629863 174.02481546 1187.54436269 181.07494617 1187.53086782 C232.52222124 1187.53026574 232.52222124 1187.53026574 283.76512027 1183.32171178 C284.45294589 1183.23739903 285.14077151 1183.15308629 285.84944034 1183.06621861 C353.62909363 1174.71457894 419.10337959 1148.65307535 469.90183902 1102.27874303 C471.97255057 1100.39970065 474.07590364 1098.57406772 476.20262027 1096.75921178 C484.19533594 1089.76558557 491.4367398 1082.22797993 498.03855777 1073.91155553 C499.50598348 1072.08113504 501.01100097 1070.28014019 502.55418277 1068.51311803 C517.81630469 1050.98902038 528.67370798 1030.66729336 539.26512027 1010.13421178 C540.26623355 1008.22525859 541.26752275 1006.31639764 542.26902652 1004.40764928 C583.57737291 924.77562183 596.67557574 833.28563702 564.99558902 535.50921178 C554.72853889 503.25302698 540.38557736 472.46881158 520.26512027 445.13421178 C519.85197574 444.57089147 519.43883121 444.00757115 519.01316714 443.42718053 C516.18103377 439.59415057 513.25642498 435.84406631 510.26512027 432.13421178 C509.8424689 431.60714635 509.41981753 431.08008092 508.98435855 430.53704381 C496.76646537 415.43899081 482.86047113 400.75794662 467.26512027 389.13421178 C465.87172189 388.06281723 464.47851027 386.99117976 463.08543277 385.91936803 C451.95886668 377.45291968 440.42619301 370.02111849 428.26512027 363.13421178 C427.55710269 362.72864049 426.84908511 362.3230692 426.11961246 361.90520787 C361.46277368 325.14106444 288.66948423 321.32114073 216.26512027 319.13421178 C215.27236087 319.10391881 214.27960147 319.07362584 213.25675845 319.0424149 C180.59419291 318.05792313 147.94022586 318.01058049 115.26512027 318.13421178 C114.90909732 317.14018346 114.55307437 316.14615514 114.18626285 315.12200475 C106.28010238 293.10635536 97.98862907 271.42176254 88.26512027 250.13421178 C87.95189822 249.44673863 87.63867618 248.75926549 87.31596255 248.05095983 C79.35272616 230.59113467 71.12355385 213.3813366 61.67869449 196.66448522 C60.24007275 194.08937715 58.84298902 191.49555157 57.45652652 188.89202428 C46.14010443 167.6841251 33.54241754 147.16865796 20.26512027 127.13421178 C19.85245914 126.50837193 19.439798 125.88253209 19.01463199 125.2377274 C-6.2895753 86.87233015 -33.86256567 50.0230828 -64.03175473 15.33733678 C-64.57662534 14.70867711 -65.12149594 14.08001744 -65.68287778 13.43230748 C-66.7354013 12.21935091 -67.79139584 11.00939494 -68.85133481 9.80291295 C-71.25583828 7.02917103 -73.18278983 4.45245755 -74.73487973 1.13421178 C-49.81870986 0.38245391 -24.92718661 -0.01926802 0 0 Z " fill="#45AED6" transform="translate(1343.734879732132,314.86578822135925)"/>
<path d="M0 0 C336.11446088 0 336.11446088 0 361.375 4.25 C362.02669159 4.35637787 362.67838318 4.46275574 363.349823 4.57235718 C420.57628219 13.9378428 478.40326293 39.24463274 513.64306641 87.09960938 C543.15211904 128.42714908 555.09860882 181.85433773 547 232 C544.15786124 247.42911067 539.84478747 261.88262585 533 276 C532.67773438 276.67208496 532.35546875 277.34416992 532.0234375 278.03662109 C524.84926417 292.7823178 515.35466326 305.24439524 504 317 C502.72382813 318.37091797 502.72382813 318.37091797 501.421875 319.76953125 C482.18608251 339.89800274 457.64341022 352.02254048 432 362 C432.5762915 362.18473877 433.15258301 362.36947754 433.74633789 362.55981445 C455.64495339 369.66504403 476.19420033 378.59555047 495 392 C495.58426758 392.41604492 496.16853516 392.83208984 496.77050781 393.26074219 C537.73613676 422.83009428 562.4933612 465.80480619 572 515 C572.13422363 515.69287109 572.26844727 516.38574219 572.40673828 517.09960938 C580.36602628 561.02681911 571.61811691 611.6456435 547.03515625 648.984375 C545.08826805 651.7138737 543.07246768 654.36483555 541 657 C540.33613281 657.86753906 539.67226563 658.73507812 538.98828125 659.62890625 C525.56025155 676.68076652 509.50318139 689.81623553 491 701 C490.360625 701.39155273 489.72125 701.78310547 489.0625 702.18652344 C359.37558354 780.77122233 89.16228213 742 0 742 C0 497.14 0 252.28 0 0 Z M58 50 C58 144.38 58 238.76 58 336 C102.570625 336.061875 147.14125 336.12375 193.0625 336.1875 C214.09625366 336.22846802 214.09625366 336.22846802 235.55493164 336.27026367 C248.23204694 336.28030301 248.23204694 336.28030301 260.90916443 336.28633118 C266.51284149 336.2891024 272.11642641 336.29999292 277.72007751 336.31672668 C284.21258016 336.33608543 290.70499603 336.34444796 297.19752761 336.34033485 C300.50511422 336.33855944 303.81235593 336.34275503 307.11993039 336.35764539 C362.20856631 336.59377309 421.30913373 328.85663782 462.5 288.9375 C485.21930767 266.20823209 493.6919773 234.77875092 494.1875 203.375 C494.06976602 165.49635474 480.99813234 131.54396723 455 104 C454.06607422 102.98679687 454.06607422 102.98679687 453.11328125 101.953125 C419.35645238 66.56860837 364.36239341 51.64458811 316.97805381 49.8879714 C309.17430553 49.71611734 301.37030064 49.74877891 293.56518555 49.77294922 C290.93939976 49.77356336 288.31362495 49.77338069 285.68784046 49.7722187 C279.4220985 49.77116637 273.15641505 49.78029244 266.89068802 49.79322136 C259.62491859 49.80775782 252.35916877 49.80921825 245.09338379 49.81079102 C225.95808008 49.82124415 206.82278913 49.84916668 187.6875 49.875 C144.890625 49.91625 102.09375 49.9575 58 50 Z M58 391 C58 488.35 58 585.7 58 686 C125.8459375 686.0928125 125.8459375 686.0928125 195.0625 686.1875 C216.40949585 686.22846802 216.40949585 686.22846802 238.18774414 686.27026367 C251.05113875 686.28030287 251.05113875 686.28030287 263.91453552 686.28633118 C269.60154532 686.28910294 275.28846438 686.29999585 280.97544861 686.31672668 C287.56391885 686.33608034 294.15230362 686.34444908 300.74080237 686.34033485 C304.09754187 686.33855884 307.45394148 686.34276114 310.81066906 686.35764539 C359.48232363 686.56313511 409.57980896 680.19006446 453 657 C454.04929688 656.44570312 455.09859375 655.89140625 456.1796875 655.3203125 C483.35731539 640.25366998 502.71078001 616.27025702 511.97265625 586.73828125 C520.03388244 557.40522624 519.11505467 525.71646877 509 497 C508.66162109 496.03223633 508.66162109 496.03223633 508.31640625 495.04492188 C495.2125354 458.36148681 466.55419425 431.74876726 432.1875 414.875 C397.21448794 398.40991748 357.61156274 390.77013198 319.07255554 390.87974548 C317.38770805 390.87846146 317.38770805 390.87846146 315.66882324 390.87715149 C311.93373981 390.87551048 308.1987023 390.88099667 304.46362305 390.88647461 C301.72867971 390.8873394 298.99373719 390.88669121 296.25879383 390.88610935 C289.69891628 390.8855803 283.13905255 390.89017207 276.57917853 390.89661068 C268.98234979 390.90384222 261.38552922 390.90460715 253.78869629 390.90539551 C233.75496202 390.91063479 213.7212308 390.92459601 193.6875 390.9375 C148.910625 390.958125 104.13375 390.97875 58 391 Z " fill="#269AC0" transform="translate(4522,759)"/>
<path d="M0 0 C350.44348846 0 350.44348846 0 430 37 C431.27085449 37.589021 431.27085449 37.589021 432.56738281 38.18994141 C453.81679869 48.15138237 473.49068503 60.60335442 492 75 C492.55606934 75.43151367 493.11213867 75.86302734 493.68505859 76.30761719 C500.10852857 81.33287942 506.13104433 86.76959345 512.09765625 92.3203125 C514.69511803 94.71850736 517.33787094 97.04936406 520 99.375 C578.22577893 151.73162041 611.64358592 231.28487967 623.75 307.1875 C623.94875732 308.42000488 624.14751465 309.65250977 624.35229492 310.92236328 C627.46958521 331.42192078 628.37912911 351.84741748 628.3125 372.5625 C628.30976578 374.33607376 628.30976578 374.33607376 628.30697632 376.14547729 C628.26001432 394.28060972 627.70345573 412.04114137 625 430 C624.74259033 431.77141357 624.74259033 431.77141357 624.47998047 433.57861328 C618.73395928 472.22946358 607.76338314 509.69850706 591 545 C590.59458984 545.86834473 590.18917969 546.73668945 589.77148438 547.63134766 C569.44550122 590.96960388 537.41894082 634.01261608 499 663 C497.69540631 664.01928874 496.39213347 665.04026925 495.08984375 666.0625 C480.84240669 677.18542773 466.06285295 686.86571476 450.30078125 695.70800781 C448.85201761 696.52155378 447.40624366 697.34046969 445.96484375 698.16699219 C317.44599704 771.70833225 122.4209196 742 0 742 C0 497.14 0 252.28 0 0 Z M59 55 C59 263.23 59 471.46 59 686 C191.30659613 691.42004457 191.30659613 691.42004457 322.125 680.75 C323.26493408 680.54020508 324.40486816 680.33041016 325.5793457 680.11425781 C363.49787091 672.86877964 400.48882473 658.99610027 433 638 C433.65677734 637.57686523 434.31355469 637.15373047 434.99023438 636.71777344 C450.50567624 626.61104154 464.67579936 614.83449035 478 602 C478.82975342 601.20311768 478.82975342 601.20311768 479.67626953 600.39013672 C486.9980141 593.32035927 493.75326048 586.05364764 500 578 C501.00624078 576.73416061 502.01277109 575.46855135 503.01953125 574.203125 C539.77641109 527.56269177 560.11816648 471.44379558 568 413 C568.11859375 412.15244141 568.2371875 411.30488281 568.359375 410.43164062 C579.05220104 330.68097973 558.6483047 240.20826661 510.06323242 175.62329102 C508.08090688 173.05048552 506.04536104 170.5228377 504 168 C503.26265625 167.07058594 502.5253125 166.14117188 501.765625 165.18359375 C489.1285586 149.43207305 474.99137889 134.37304348 459 122 C457.75856818 121.00719327 456.51772343 120.01365217 455.27734375 119.01953125 C344.56356695 31.26201481 188.49336562 55 59 55 Z " fill="#269AC0" transform="translate(3045,759)"/>
<path d="M0 0 C169.29 0 338.58 0 513 0 C513 18.15 513 36.3 513 55 C362.52 55 212.04 55 57 55 C57 149.71 57 244.42 57 342 C200.22 342 343.44 342 491 342 C491 359.49 491 376.98 491 395 C347.78 395 204.56 395 57 395 C57 491.03 57 587.06 57 686 C211.44 686 365.88 686 525 686 C525 704.48 525 722.96 525 742 C351.75 742 178.5 742 0 742 C0 497.14 0 252.28 0 0 Z " fill="#269AC0" transform="translate(3835,759)"/>
<path d="M0 0 C1.56119981 1.47567211 3.11223068 2.96136867 4.66088867 4.45019531 C5.25691895 5.01899414 5.85294922 5.58779297 6.46704102 6.17382812 C15.35452167 14.6968235 23.43095487 23.47759602 30.66088867 33.45019531 C31.11947266 34.08038574 31.57805664 34.71057617 32.05053711 35.35986328 C57.29212179 70.34793976 72.39078055 110.88755502 78.66088867 153.45019531 C78.81187012 154.47129395 78.96285156 155.49239258 79.1184082 156.54443359 C89.86643683 233.05602036 75.89995387 315.47509557 29.3034668 378.27978516 C26.87294878 381.44237521 24.30378997 384.46432209 21.66088867 387.45019531 C21.00604492 388.21332031 20.35120117 388.97644531 19.67651367 389.76269531 C8.47449748 402.56499953 -3.55908468 414.45442569 -17.33911133 424.45019531 C-17.87600586 424.84255371 -18.41290039 425.23491211 -18.96606445 425.63916016 C-55.78792889 452.36073796 -98.49961666 467.30990162 -143.33911133 473.45019531 C-144.20052734 473.56878906 -145.06194336 473.68738281 -145.94946289 473.80957031 C-210.57775759 482.21650296 -279.33313294 468.53759612 -331.71411133 428.70019531 C-347.46030324 416.48852596 -362.12731585 403.26103784 -374.33911133 387.45019531 C-374.7804541 386.89589844 -375.22179688 386.34160156 -375.67651367 385.77050781 C-384.88040719 374.20963505 -391.71417207 362.35393867 -399.33911133 349.45019531 C-399.66911133 471.55019531 -399.99911133 593.65019531 -400.33911133 719.45019531 C-416.83911133 719.45019531 -433.33911133 719.45019531 -450.33911133 719.45019531 C-450.33911133 462.71019531 -450.33911133 205.97019531 -450.33911133 -58.54980469 C-433.50911133 -58.54980469 -416.67911133 -58.54980469 -399.33911133 -58.54980469 C-399.00911133 -18.94980469 -398.67911133 20.65019531 -398.33911133 61.45019531 C-394.70911133 55.51019531 -391.07911133 49.57019531 -387.33911133 43.45019531 C-383.42270788 38.0243447 -379.49455679 32.68459361 -375.33911133 27.45019531 C-374.90695312 26.90089355 -374.47479492 26.3515918 -374.02954102 25.78564453 C-361.98201106 10.59791795 -347.99885377 -3.13305231 -332.33911133 -14.54980469 C-331.21237862 -15.39428252 -330.0860793 -16.2393389 -328.96020508 -17.08496094 C-291.92685803 -44.5700276 -247.84244063 -59.39539411 -202.33911133 -64.54980469 C-200.6781543 -64.74896484 -200.6781543 -64.74896484 -198.98364258 -64.95214844 C-129.05785943 -71.8409233 -51.71780259 -48.12161722 0 0 Z M-287.33911133 10.45019531 C-287.93771973 10.76956055 -288.53632813 11.08892578 -289.15307617 11.41796875 C-302.4967974 18.58262692 -314.27192086 27.11695465 -325.33911133 37.45019531 C-326.73023669 38.66394585 -328.12582458 39.87260784 -329.52661133 41.07519531 C-346.63287958 56.0602863 -359.93645887 75.33088283 -370.33911133 95.45019531 C-370.71132813 96.16336914 -371.08354492 96.87654297 -371.46704102 97.61132812 C-381.6802046 117.41946722 -388.21765703 138.58891545 -392.33911133 160.45019531 C-392.50282227 161.27551758 -392.6665332 162.10083984 -392.83520508 162.95117188 C-398.0442537 190.23410216 -397.92311937 222.24759729 -392.33911133 249.45019531 C-392.14043457 250.4347168 -391.94175781 251.41923828 -391.73706055 252.43359375 C-382.89061322 294.96280645 -364.38397352 332.85427128 -333.80493164 363.95361328 C-332.57702907 365.20728462 -331.37301918 366.48429755 -330.17504883 367.76660156 C-324.19671078 374.06293631 -317.25698996 379.23969926 -310.33911133 384.45019531 C-309.50508789 385.07925781 -308.67106445 385.70832031 -307.81176758 386.35644531 C-284.62309418 403.16327868 -258.29196837 414.15690912 -230.40161133 420.32519531 C-229.54035645 420.51621826 -228.67910156 420.70724121 -227.79174805 420.90405273 C-213.18759811 423.92206123 -198.64919109 424.83138866 -183.77661133 424.76269531 C-182.95039276 424.7608725 -182.12417419 424.75904968 -181.2729187 424.75717163 C-167.45035783 424.70609834 -153.96246581 423.93842381 -140.33911133 421.45019531 C-139.38584961 421.27858887 -138.43258789 421.10698242 -137.45043945 420.93017578 C-96.44894855 413.30880231 -60.32092348 395.43538213 -30.33911133 366.45019531 C-29.6146582 365.77730469 -28.89020508 365.10441406 -28.14379883 364.41113281 C-12.70804827 349.72529726 -1.21746236 330.65139101 7.66088867 311.45019531 C8.18166992 310.34804687 8.70245117 309.24589844 9.23901367 308.11035156 C17.38611363 290.07953298 22.33719652 270.90237673 25.66088867 251.45019531 C25.8260498 250.4935498 25.99121094 249.5369043 26.16137695 248.55126953 C31.03854446 218.73851135 30.74614127 186.2042254 25.66088867 156.45019531 C25.49991699 155.47244141 25.33894531 154.4946875 25.1730957 153.48730469 C18.47079167 114.05895706 2.1369254 76.78612073 -25.33911133 47.45019531 C-25.83701172 46.90991699 -26.33491211 46.36963867 -26.84790039 45.81298828 C-58.24148482 12.00528328 -101.70341403 -4.94464162 -146.33911133 -12.54980469 C-147.11947754 -12.68402832 -147.89984375 -12.81825195 -148.70385742 -12.95654297 C-195.56890079 -20.53467484 -245.74490052 -12.03615567 -287.33911133 10.45019531 Z " fill="#269AC0" transform="translate(6150.339111328125,1035.5498046875)"/>
<path d="M0 0 C1.29729589 0.34557531 2.58716772 0.71983853 3.86962891 1.11694336 C4.56905609 1.31361099 5.26848328 1.51027863 5.98910522 1.71290588 C8.2018523 2.34714071 10.3989801 3.02080731 12.59619141 3.70678711 C13.62153992 4.02108673 13.62153992 4.02108673 14.66760254 4.34173584 C19.55108151 5.85041825 24.39040003 7.47539803 29.22119141 9.14428711 C29.96954254 9.40145508 30.71789368 9.65862305 31.48892212 9.92358398 C83.66231402 27.93799754 133.2030065 54.99858318 174.59619141 91.70678711 C175.97080975 92.89472889 177.34574878 94.08229981 178.72119141 95.26928711 C192.01022466 106.98498873 205.22906555 119.08180749 216.59619141 132.70678711 C217.78341797 134.07770508 217.78341797 134.07770508 218.99462891 135.47631836 C237.5202042 156.92395146 253.61622324 180.07354114 267.59619141 204.70678711 C268.09860352 205.57996582 268.60101562 206.45314453 269.11865234 207.3527832 C285.0547361 235.12428635 309.59619141 278.16195887 309.59619141 310.70678711 C308.93619141 310.70678711 308.27619141 310.70678711 307.59619141 310.70678711 C306.46142578 309.11572266 306.46142578 309.11572266 305.18994141 306.84350586 C304.70275635 305.98990479 304.21557129 305.13630371 303.71362305 304.25683594 C303.17987061 303.31219482 302.64611816 302.36755371 302.09619141 301.39428711 C290.28058363 280.96407917 276.92313436 261.45484709 262.59619141 242.70678711 C262.11102051 242.06999023 261.62584961 241.43319336 261.12597656 240.77709961 C252.22834748 229.14669304 242.71780739 218.03758803 232.86303711 207.20898438 C231.44333869 205.64188808 230.03118218 204.06788883 228.63037109 202.48388672 C222.99763664 196.12995294 217.11653697 190.07231925 211.1027832 184.08300781 C209.52844986 182.51406351 207.95957551 180.93980153 206.39111328 179.36499023 C200.96403822 173.93439124 195.43686084 168.69415975 189.59619141 163.70678711 C188.05137881 162.29355161 186.50923816 160.87738302 184.97119141 159.45678711 C179.38606717 154.42338487 173.50713818 149.82693991 167.56054688 145.23413086 C165.5308134 143.6559538 163.51752274 142.05853257 161.50634766 140.45678711 C144.21777689 126.7445505 126.19602891 114.19044245 107.08642578 103.14672852 C104.53583551 101.6718872 101.99562943 100.18014196 99.45556641 98.68725586 C82.3185377 88.67915406 64.80347783 79.86835723 46.47119141 72.26928711 C45.27429687 71.77299805 44.07740234 71.27670898 42.84423828 70.76538086 C37.26093013 68.4885109 31.64857313 66.28743895 25.97900391 64.23413086 C25.03686035 63.88987061 24.0947168 63.54561035 23.12402344 63.19091797 C20.63870632 62.50398128 20.63870632 62.50398128 18.47387695 63.39794922 C16.43958314 64.81595067 14.85399393 66.29967798 13.17041016 68.12084961 C12.538125 68.80018555 11.90583984 69.47952148 11.25439453 70.17944336 C10.6040625 70.8897168 9.95373047 71.59999023 9.28369141 72.33178711 C8.64496094 73.01885742 8.00623047 73.70592773 7.34814453 74.41381836 C3.56869996 78.49577167 -0.12042582 82.64836699 -3.77172852 86.8449707 C-6.10553054 89.50728547 -8.50120015 92.10631679 -10.90380859 94.70678711 C-13.94349855 98.00631488 -16.96538919 101.31630318 -19.90380859 104.70678711 C-23.31058209 108.6376796 -26.83383644 112.45875284 -30.35693359 116.28491211 C-32.90936003 119.06172768 -35.43364147 121.85659428 -37.90380859 124.70678711 C-41.31058209 128.6376796 -44.83383644 132.45875284 -48.35693359 136.28491211 C-50.90936003 139.06172768 -53.43364147 141.85659428 -55.90380859 144.70678711 C-59.31058209 148.6376796 -62.83383644 152.45875284 -66.35693359 156.28491211 C-68.90936003 159.06172768 -71.43364147 161.85659428 -73.90380859 164.70678711 C-77.31058209 168.6376796 -80.83383644 172.45875284 -84.35693359 176.28491211 C-86.90936003 179.06172768 -89.43364147 181.85659428 -91.90380859 184.70678711 C-95.31058209 188.6376796 -98.83383644 192.45875284 -102.35693359 196.28491211 C-104.90936003 199.06172768 -107.43364147 201.85659428 -109.90380859 204.70678711 C-113.31058209 208.6376796 -116.83383644 212.45875284 -120.35693359 216.28491211 C-122.90936003 219.06172768 -125.43364147 221.85659428 -127.90380859 224.70678711 C-131.31058209 228.6376796 -134.83383644 232.45875284 -138.35693359 236.28491211 C-140.90936003 239.06172768 -143.43364147 241.85659428 -145.90380859 244.70678711 C-149.31058209 248.6376796 -152.83383644 252.45875284 -156.35693359 256.28491211 C-158.90936003 259.06172768 -161.43364147 261.85659428 -163.90380859 264.70678711 C-166.842252 268.09729873 -169.86507974 271.40635444 -172.90380859 274.70678711 C-178.59050025 280.88788972 -184.23022185 287.08459607 -189.40380859 293.70678711 C-183.96484401 294.95447832 -178.5144064 296.08693631 -173.03662109 297.15209961 C-154.82259898 300.71467889 -137.07314159 304.94729367 -119.40380859 310.70678711 C-117.91083252 311.18801025 -117.91083252 311.18801025 -116.38769531 311.67895508 C-96.68907386 318.08466699 -77.67315328 326.15295988 -59.30322266 335.72241211 C-57.37309984 336.72270198 -55.43241937 337.69987915 -53.48974609 338.67553711 C-33.60740548 348.78479484 -15.06039971 361.12005053 2.59619141 374.70678711 C3.2586084 375.21226074 3.92102539 375.71773437 4.60351562 376.23852539 C11.43496625 381.45951998 18.04617838 386.84984645 24.38134766 392.67163086 C26.36185138 394.49145879 28.37245418 396.26245042 30.40869141 398.01928711 C42.10378481 408.22891502 53.70826151 418.8042547 63.79541016 430.62475586 C65.96943343 433.13832289 68.22009629 435.5745494 70.47119141 438.01928711 C75.38813471 443.42349506 80.0570783 448.9834129 84.59619141 454.70678711 C85.11197754 455.35534668 85.62776367 456.00390625 86.15917969 456.67211914 C94.68695404 467.42602922 102.83619481 478.38654948 110.59619141 489.70678711 C111.01819824 490.32054199 111.44020508 490.93429687 111.875 491.56665039 C150.02530353 547.27364806 178.79779505 609.25657277 197.79296875 673.98999023 C198.27934602 675.63509852 198.78067543 677.27602323 199.30957031 678.90795898 C200.35150203 682.18185915 200.90082469 684.44520389 199.59619141 687.70678711 C195.7076353 681.46120118 191.86507149 675.19924958 188.18121338 668.83059692 C182.73248339 659.43508544 176.90180922 650.3452592 170.84619141 641.33178711 C170.36852325 640.61822052 169.8908551 639.90465393 169.39871216 639.16946411 C157.91638604 622.0283005 145.80828226 605.55790734 132.59619141 589.70678711 C132.11553223 589.12703125 131.63487305 588.54727539 131.13964844 587.94995117 C125.3773647 581.00815958 119.4436542 574.26211137 113.29931641 567.65600586 C111.3439707 565.54922272 109.47150799 563.38707809 107.60791016 561.19897461 C102.66305538 555.52709327 97.29944983 550.26090792 91.97192383 544.95214844 C90.16258208 543.14816626 88.35864821 541.33890046 86.55517578 539.52905273 C80.73623962 533.70681082 74.87581299 528.03603158 68.59619141 522.70678711 C67.05137881 521.29355161 65.50923816 519.87738302 63.97119141 518.45678711 C58.93154327 513.9095626 53.64848276 509.74156281 48.28759766 505.58569336 C45.83505832 503.682917 43.40709495 501.75477229 40.99853516 499.79663086 C19.49435378 482.31489762 -3.54969916 466.79481487 -27.40380859 452.70678711 C-28.19126465 452.24095215 -28.9787207 451.77511719 -29.79003906 451.29516602 C-63.2830755 431.58593044 -98.2226564 415.16097072 -134.53460693 401.41448975 C-136.27915724 400.75398164 -138.02244122 400.09013157 -139.765625 399.42602539 C-216.44965137 370.38358217 -299.15317237 356.01390919 -380.96630859 354.14428711 C-382.76774736 354.10093568 -384.56917973 354.05731719 -386.37060547 354.01342773 C-390.71493918 353.90815029 -395.05934227 353.80643524 -399.40380859 353.70678711 C-398.45580035 352.58748303 -397.50588499 351.46979405 -396.55517578 350.3527832 C-395.76200958 349.41890274 -395.76200958 349.41890274 -394.95281982 348.46615601 C-392.99477939 346.24221123 -390.88188686 344.28322479 -388.65380859 342.33178711 C-387.79529297 341.57381836 -386.93677734 340.81584961 -386.05224609 340.03491211 C-385.17826172 339.26663086 -384.30427734 338.49834961 -383.40380859 337.70678711 C-381.69365882 336.16713565 -379.98529348 334.62549959 -378.27880859 333.08178711 C-374.70215214 329.86168208 -371.095353 326.68006772 -367.46630859 323.51928711 C-365.09416431 321.43467546 -362.74824794 319.32250067 -360.40380859 317.20678711 C-356.78704514 313.94287863 -353.13991251 310.71887762 -349.46630859 307.51928711 C-347.09416431 305.43467546 -344.74824794 303.32250067 -342.40380859 301.20678711 C-339.42318139 298.5169528 -336.43135627 295.84368347 -333.40380859 293.20678711 C-328.68679575 289.09597672 -324.0474197 284.90010866 -319.40380859 280.70678711 C-314.12395283 275.93891736 -308.83089053 271.19166493 -303.46630859 266.51928711 C-301.09416431 264.43467546 -298.74824794 262.32250067 -296.40380859 260.20678711 C-292.78704514 256.94287863 -289.13991251 253.71887762 -285.46630859 250.51928711 C-283.09416431 248.43467546 -280.74824794 246.32250067 -278.40380859 244.20678711 C-275.42318139 241.5169528 -272.43135627 238.84368347 -269.40380859 236.20678711 C-264.68679575 232.09597672 -260.0474197 227.90010866 -255.40380859 223.70678711 C-250.12395283 218.93891736 -244.83089053 214.19166493 -239.46630859 209.51928711 C-237.09416431 207.43467546 -234.74824794 205.32250067 -232.40380859 203.20678711 C-228.78704514 199.94287863 -225.13991251 196.71887762 -221.46630859 193.51928711 C-219.09416431 191.43467546 -216.74824794 189.32250067 -214.40380859 187.20678711 C-211.42318139 184.5169528 -208.43135627 181.84368347 -205.40380859 179.20678711 C-200.68679575 175.09597672 -196.0474197 170.90010866 -191.40380859 166.70678711 C-186.12395283 161.93891736 -180.83089053 157.19166493 -175.46630859 152.51928711 C-173.09416431 150.43467546 -170.74824794 148.32250067 -168.40380859 146.20678711 C-164.78704514 142.94287863 -161.13991251 139.71887762 -157.46630859 136.51928711 C-155.09416431 134.43467546 -152.74824794 132.32250067 -150.40380859 130.20678711 C-146.78704514 126.94287863 -143.13991251 123.71887762 -139.46630859 120.51928711 C-136.2286753 117.67409421 -133.03694569 114.77824875 -129.83740234 111.89038086 C-127.72869713 109.99830026 -125.60461058 108.12772953 -123.46630859 106.26928711 C-120.23821347 103.45856186 -117.06642417 100.59098811 -113.90380859 97.70678711 C-110.11717862 94.25350558 -106.29904539 90.8457966 -102.43115234 87.48413086 C-100.06891687 85.41319224 -97.73585006 83.31165863 -95.40380859 81.20678711 C-91.78704514 77.94287863 -88.13991251 74.71887762 -84.46630859 71.51928711 C-82.09416431 69.43467546 -79.74824794 67.32250067 -77.40380859 65.20678711 C-74.42318139 62.5169528 -71.43135627 59.84368347 -68.40380859 57.20678711 C-63.68679575 53.09597672 -59.0474197 48.90010866 -54.40380859 44.70678711 C-49.12395283 39.93891736 -43.83089053 35.19166493 -38.46630859 30.51928711 C-36.09416431 28.43467546 -33.74824794 26.32250067 -31.40380859 24.20678711 C-27.79112956 20.94656456 -24.14891868 17.72535146 -20.47802734 14.53100586 C-17.2182891 11.66415509 -14.00970075 8.74090227 -10.79833984 5.82006836 C-10.00814453 5.12268555 -9.21794922 4.42530273 -8.40380859 3.70678711 C-7.31724976 2.60778076 -7.31724976 2.60778076 -6.20874023 1.48657227 C-3.40380859 -0.29321289 -3.40380859 -0.29321289 0 0 Z " fill="#E69A52" transform="translate(1067.40380859375,270.293212890625)"/>
<path d="M0 0 C54.14967032 48.64054217 82.51258783 116.8283833 86.62573242 188.9987793 C86.81505409 192.99982686 86.94805021 196.99475015 87 201 C87.01321289 201.97525635 87.02642578 202.9505127 87.04003906 203.95532227 C87.43557848 260.53035657 74.68833496 320.46085634 41 367 C40.54866699 367.62503418 40.09733398 368.25006836 39.63232422 368.89404297 C33.49873786 377.34669563 27.12431699 385.35203883 20 393 C18.78661781 394.39144666 17.57802197 395.78708639 16.375 397.1875 C10.68659978 403.68110756 4.61021623 409.27528833 -2.125 414.68359375 C-3.9759966 416.17495378 -5.81090849 417.68661746 -7.625 419.22265625 C-54.44907554 458.73046999 -118.1647192 476.20106359 -178.5 476.25 C-179.25811981 476.25067474 -180.01623962 476.25134949 -180.79733276 476.25204468 C-227.28178573 476.18709937 -272.8815337 465.92638317 -314 444 C-314.97332275 443.48832275 -314.97332275 443.48832275 -315.96630859 442.96630859 C-344.54464371 427.85729961 -371.33064347 405.75596522 -391 380 C-391.48049805 379.37416016 -391.96099609 378.74832031 -392.45605469 378.10351562 C-421.50146846 339.99158952 -437.9945114 295.37054239 -444 248 C-444.17571533 246.63439941 -444.17571533 246.63439941 -444.35498047 245.24121094 C-453.33624098 171.81640359 -436.98991384 92.8685108 -391 34 C-390.24074219 33.02804687 -389.48148438 32.05609375 -388.69921875 31.0546875 C-377.1890475 16.70275106 -364.46984052 3.37615337 -350 -8 C-349.03707031 -8.77988281 -348.07414062 -9.55976562 -347.08203125 -10.36328125 C-270.29551241 -71.38374679 -158.1903774 -81.09851268 0 0 Z M-331 45 C-331.77859375 45.72574219 -332.5571875 46.45148438 -333.359375 47.19921875 C-366.6427074 79.12525214 -385.02968919 125.1809015 -392 170 C-392.11859375 170.75410156 -392.2371875 171.50820312 -392.359375 172.28515625 C-400.69431688 228.54601396 -389.52788753 292.4029751 -355.5625 338.8125 C-353.74262251 341.23634034 -351.88487618 343.62642756 -350 346 C-349.55543457 346.56025879 -349.11086914 347.12051758 -348.65283203 347.69775391 C-312.90984283 392.24263376 -261.51143483 416.38685686 -205.43579102 423.31689453 C-197.08007605 424.19413083 -188.70516911 424.24334765 -180.3125 424.25 C-179.54265778 424.25067474 -178.77281555 424.25134949 -177.97964478 424.25204468 C-119.66874052 424.17133911 -64.4123471 402.82579232 -22.76660156 361.78955078 C-8.93692689 347.7802203 1.93646962 331.41339696 11 314 C11.34659668 313.33419922 11.69319336 312.66839844 12.05029297 311.98242188 C40.349735 256.73935891 41.71829735 187.86388791 23.17285156 129.39208984 C13.09188674 98.67577991 -3.27179163 71.72970474 -25.1875 48.0625 C-25.74550293 47.45962158 -26.30350586 46.85674316 -26.87841797 46.2355957 C-39.34601336 33.03106266 -54.37036588 21.86428007 -70.19238281 13.01318359 C-71.95946143 12.02272219 -73.70985745 11.0066856 -75.4609375 9.98828125 C-98.53046938 -3.14791024 -124.76406038 -10.63356448 -151 -14 C-151.69343506 -14.0935376 -152.38687012 -14.1870752 -153.10131836 -14.28344727 C-218.80559223 -22.068181 -283.31934197 -0.43285558 -331 45 Z " fill="#269AC0" transform="translate(7182,1034)"/>
<path d="M0 0 C196.02 0 392.04 0 594 0 C594 17.16 594 34.32 594 52 C505.56 52 417.12 52 326 52 C326 279.37 326 506.74 326 741 C306.86 741 287.72 741 268 741 C268 513.63 268 286.26 268 52 C179.56 52 91.12 52 0 52 C0 34.84 0 17.68 0 0 Z " fill="#269AC0" transform="translate(5135,760)"/>
<path d="M0 0 C1.18400391 0.42708252 2.36800781 0.85416504 3.58789062 1.29418945 C4.58752838 1.63952477 4.58752838 1.63952477 5.60736084 1.99183655 C7.83111863 2.76795098 10.03624371 3.58742841 12.24414062 4.4074707 C13.80394706 4.96093978 15.36484927 5.51132913 16.92675781 6.05883789 C20.33334449 7.25804726 23.73287346 8.47508865 27.12890625 9.70385742 C33.18550344 11.88866039 39.26767291 13.99715959 45.35351562 16.09887695 C47.47397881 16.83164648 49.59442163 17.56447494 51.71484375 18.29736328 C52.75390869 18.65649811 53.79297363 19.01563293 54.86352539 19.38565063 C62.83025246 22.14500667 70.78665326 24.93410524 78.74414062 27.7199707 C77.35100618 30.59755615 75.94544598 32.83538576 73.80664062 35.2199707 C73.19304687 35.90704102 72.57945312 36.59411133 71.94726562 37.30200195 C70.29485137 39.11555589 68.63885615 40.92541612 66.97851562 42.73168945 C66.49632568 43.25633789 66.01413574 43.78098633 65.51733398 44.3215332 C64.56452974 45.35603368 63.60970523 46.38867814 62.65258789 47.41918945 C59.87690767 50.42197532 57.28273248 53.51600446 54.74414062 56.7199707 C55.63681641 57.01540771 56.52949219 57.31084473 57.44921875 57.61523438 C131.60185565 82.24005933 200.80339469 117.12668027 260.74414062 167.7199707 C261.93543425 168.71489724 263.12683603 169.70969429 264.31835938 170.7043457 C277.4371501 181.72717993 289.73332618 193.63380116 301.86914062 205.7199707 C302.6505542 206.49671143 303.43196777 207.27345215 304.23706055 208.07373047 C308.38697552 212.23527612 312.36838864 216.48371953 316.20263672 220.93774414 C318.24157417 223.29508392 320.36871172 225.56563142 322.49414062 227.8449707 C327.24088704 233.05061707 331.59260281 238.49291656 335.90039062 244.0637207 C337.78850256 246.50470519 339.7036021 248.91927492 341.65039062 251.3137207 C385.1141143 304.77438809 418.3501359 367.47647055 440.24414062 432.6574707 C440.65349854 433.87063965 441.06285645 435.08380859 441.48461914 436.33374023 C444.02563549 444.04672264 446.06013482 451.77625118 447.74414062 459.7199707 C447.08414063 459.7199707 446.42414062 459.7199707 445.74414062 459.7199707 C444.13926434 457.27042269 442.65074248 454.81266489 441.18164062 452.2824707 C429.87806296 433.32789078 417.04092755 415.31916292 403.74414062 397.7199707 C403.29522461 397.1232959 402.84630859 396.52662109 402.38378906 395.91186523 C389.29615247 378.55040718 375.3909728 361.76335108 360.6081543 345.81933594 C358.80597964 343.87379234 357.01718237 341.91851974 355.23535156 339.95410156 C349.02478227 333.10913831 342.64857324 326.4669843 336.09985352 319.9453125 C334.54324674 318.39412343 332.99213891 316.83757678 331.44140625 315.28051758 C326.5884432 310.42432799 321.69227241 305.66791236 316.47192383 301.20263672 C313.89066155 298.98757302 311.42054098 296.66330306 308.93164062 294.3449707 C304.33854687 290.10686369 299.63143841 286.06396878 294.75976562 282.14575195 C292.54771847 280.36637205 290.35207223 278.57366518 288.16601562 276.76293945 C272.98833981 264.23154873 257.10861022 252.65102832 240.74414062 241.7199707 C239.99084473 241.21643066 239.23754883 240.71289062 238.46142578 240.1940918 C163.2857499 190.16417935 78.69694211 156.05447464 -79.25585938 130.7199707 C-81.16890869 130.59078247 -81.16890869 130.59078247 -83.12060547 130.45898438 C-94.71577517 129.71379646 -106.26506959 129.59976196 -117.88085938 129.6574707 C-119.6777331 129.66250533 -121.47460822 129.6670647 -123.27148438 129.67114258 C-127.599645 129.68197075 -131.9277359 129.69912232 -136.25585938 129.7199707 C-134.84046107 126.77103431 -133.48086713 124.69736198 -131.13085938 122.4074707 C-130.59203125 121.87508789 -130.05320312 121.34270508 -129.49804688 120.79418945 C-127.58916037 119.02830316 -125.6438987 117.33737513 -123.66992188 115.64575195 C-118.44345413 111.09267357 -113.61978539 106.15368045 -108.75585938 101.2199707 C-98.73873469 91.05912831 -98.73873469 91.05912831 -94.28710938 87.2512207 C-88.98528897 82.71063235 -84.15279551 77.68681551 -79.25585938 72.7199707 C-73.76769026 67.15345248 -68.28210057 61.66400594 -62.33789062 56.5793457 C-57.77723312 52.50641329 -53.54759808 48.07297829 -49.25585938 43.7199707 C-43.76039993 38.14605806 -38.26781415 32.64809899 -32.31542969 27.55688477 C-27.89081201 23.61060413 -23.79186095 19.31507742 -19.63085938 15.0949707 C-17.80777583 13.24620993 -15.98232186 11.39978311 -14.15429688 9.5559082 C-13.35685059 8.74686035 -12.5594043 7.9378125 -11.73779297 7.10424805 C-10.91875488 6.31743652 -10.0997168 5.530625 -9.25585938 4.7199707 C-8.79411316 4.23548965 -8.33236694 3.75100861 -7.85662842 3.25184631 C-5.11549678 0.59721274 -3.86306893 -0.33225405 0 0 Z " fill="#E69A52" transform="translate(915.255859375,883.280029296875)"/>
<path d="M0 0 C2.28455448 0.66411175 4.55223995 1.38826253 6.80224609 2.16137695 C7.44230087 2.37942993 8.08235565 2.59748291 8.74180603 2.82214355 C10.83784746 3.53804398 12.93065742 4.26290779 15.0234375 4.98828125 C16.49388065 5.49336647 17.96447456 5.998013 19.43521118 6.50224304 C22.51124045 7.55834718 25.58575048 8.61872673 28.65917969 9.68237305 C32.57582321 11.03761513 36.49552742 12.38372734 40.41635704 13.72680378 C43.45282337 14.76778833 46.48786452 15.81287699 49.52248001 16.85924339 C50.96603437 17.35662323 52.40995367 17.85294534 53.85425949 18.34813881 C61.38587298 20.93364381 68.78434347 23.6138402 76 27 C71.9532401 32.591054 67.64809217 37.70398118 62.875 42.6875 C59.07654541 46.67547409 55.36138766 50.62685138 52 55 C57.89302459 57.44880137 63.80719096 59.64500481 69.88623047 61.58496094 C94.684017 69.50841396 118.55366408 79.73402416 142 91 C142.9477832 91.45197754 143.89556641 91.90395508 144.87207031 92.36962891 C196.48597557 117.0933936 246.24912069 151.41616897 286.375 192.41015625 C288.09890695 194.09676714 289.90419041 195.63568024 291.75 197.1875 C295.82692052 200.69444328 299.40612335 204.60606265 302.99853516 208.59423828 C305.46844457 211.33562295 307.96708367 214.00325341 310.625 216.5625 C314.30560868 220.17300185 317.45938204 224.17416415 320.6875 228.1875 C322.84349735 230.80965894 325.07567103 233.31608568 327.375 235.8125 C332.93560432 241.93972894 337.98852031 248.42445889 343 255 C343.50595703 255.66016113 344.01191406 256.32032227 344.53320312 257.00048828 C352.52831941 267.47983679 359.99286813 278.29349482 367.3125 289.25 C367.93667313 290.18162964 367.93667313 290.18162964 368.57345581 291.13208008 C399.87962615 337.94163229 424.56472358 389.25183908 441.1875 443.0625 C441.47923096 444.00198486 441.77096191 444.94146973 442.0715332 445.90942383 C442.4595813 447.20916138 442.4595813 447.20916138 442.85546875 448.53515625 C443.07871826 449.281604 443.30196777 450.02805176 443.53198242 450.79711914 C444.05308025 453.24983989 444.08053285 455.49963365 444 458 C441.77166936 455.90826272 440.13470093 453.82112245 438.5390625 451.21875 C438.07443604 450.46907959 437.60980957 449.71940918 437.13110352 448.94702148 C436.63408936 448.13950439 436.1370752 447.3319873 435.625 446.5 C418.9292253 419.74431144 400.21941122 394.19876343 380 370 C379.36481445 369.23743896 379.36481445 369.23743896 378.71679688 368.45947266 C373.04794716 361.66297047 367.26208449 355.00980016 361.2734375 348.4921875 C359.26915157 346.29504932 357.31386584 344.06719919 355.375 341.8125 C352.39287347 338.37535416 349.21000804 335.19139253 345.96875 332 C344.06013545 330.06108998 342.27289448 328.06300449 340.5 326 C335.11101691 319.75562277 329.24996977 314.15231777 323 308.78125 C320.91662922 306.9257479 318.95718793 304.98776899 317 303 C313.16417355 299.11974313 309.14484006 295.544929 305 292 C303.95787415 291.09427806 302.91624715 290.18798197 301.875 289.28125 C294.39132432 282.78602451 286.75101139 276.54931727 278.91308594 270.48779297 C276.87255606 268.90088778 274.84581561 267.29744018 272.8203125 265.69140625 C238.4474904 238.53164274 200.6684411 215.23436034 161.26806641 196.10742188 C158.67523618 194.84142856 156.09416805 193.55265665 153.51171875 192.265625 C79.61750997 155.76265409 -3.79859836 134.33008506 -86 129 C-86.81581543 128.94360352 -87.63163086 128.88720703 -88.47216797 128.82910156 C-105.2960274 127.70105862 -122.14835426 127.89731349 -139 128 C-137.64876068 124.94643153 -136.18125976 122.98507167 -133.71875 120.7421875 C-133.05029053 120.12529053 -132.38183105 119.50839355 -131.69311523 118.87280273 C-130.96938721 118.21352783 -130.24565918 117.55425293 -129.5 116.875 C-122.23182614 110.15731505 -115.18071315 103.261947 -108.2421875 96.20458984 C-104.97421111 92.89824633 -101.69314685 89.68343421 -98.16015625 86.66015625 C-92.82260127 82.06722395 -87.94001396 77.01053761 -83 72 C-77.51183089 66.43348177 -72.0262412 60.94403524 -66.08203125 55.859375 C-61.52137374 51.78644259 -57.29173871 47.35300758 -53 43 C-47.50454055 37.42608736 -42.01195478 31.92812828 -36.05957031 26.83691406 C-31.63495263 22.89063343 -27.53600158 18.59510672 -23.375 14.375 C-19.94025841 10.89188176 -16.48545151 7.4323511 -13 4 C-12.42668945 3.40735352 -11.85337891 2.81470703 -11.26269531 2.20410156 C-7.35903614 -1.54434253 -5.10653849 -1.01686622 0 0 Z " fill="#45AED7" transform="translate(862,694)"/>
<path d="M0 0 C-0.61200896 4.27317818 -2.12339031 7.4758274 -4.16796875 11.26171875 C-4.48526443 11.85241653 -4.80256012 12.44311432 -5.12947083 13.05171204 C-5.80143183 14.29971891 -6.47652209 15.54604537 -7.15454102 16.79077148 C-8.17303346 18.66093641 -9.18209048 20.5359304 -10.18945312 22.41210938 C-13.15821411 27.92283485 -16.17758749 33.40723195 -19.30078125 38.83203125 C-19.75235596 39.61940674 -20.20393066 40.40678223 -20.66918945 41.21801758 C-22 43 -22 43 -25 44 C-27.58079259 42.74578304 -30.01855108 41.42871301 -32.5 40 C-71.0604318 18.80913207 -118.24691226 15.37437877 -160.24609375 27.49609375 C-180.51778518 33.71252162 -199.21052559 43.07974827 -216 56 C-216.91910156 56.69480469 -217.83820313 57.38960937 -218.78515625 58.10546875 C-254.54424617 86.17556438 -277.25119539 128.49313446 -282.78001583 173.4898119 C-283.23859616 178.72256509 -283.15405603 183.97529856 -283.15821838 189.22436523 C-283.16279031 190.56358168 -283.16779125 191.90279672 -283.17318195 193.24201012 C-283.18670063 196.90664059 -283.19416314 200.57126184 -283.20060861 204.23591065 C-283.20864026 208.19355483 -283.22232845 212.15117999 -283.23532104 216.10881042 C-283.25704469 222.96057537 -283.27520415 229.81234229 -283.29092598 236.66412354 C-283.31366214 246.57058459 -283.34179972 256.47702455 -283.37124526 266.38346767 C-283.4188753 282.45697042 -283.46215188 298.53048181 -283.50268555 314.60400391 C-283.54206384 330.21566439 -283.58349564 345.8273172 -283.62768555 361.43896484 C-283.63040982 362.40166263 -283.63313409 363.36436041 -283.63594092 364.35623085 C-283.64962078 369.18592089 -283.66334098 374.01561081 -283.67708123 378.84530067 C-283.79097392 418.89685131 -283.89753031 458.94841863 -284 499 C-301.49 499 -318.98 499 -337 499 C-337 326.08 -337 153.16 -337 -25 C-320.83 -25 -304.66 -25 -288 -25 C-287.09634281 -20.48171407 -286.79287663 -16.29376047 -286.70288086 -11.72143555 C-286.68322769 -10.90140549 -286.66357452 -10.08137543 -286.64332581 -9.23649597 C-286.57965552 -6.53664851 -286.52221671 -3.83670676 -286.46484375 -1.13671875 C-286.4218169 0.73944469 -286.37840026 2.61559922 -286.33460999 4.491745 C-286.22058307 9.4219252 -286.1118456 14.35220838 -286.00421143 19.28253174 C-285.8933735 24.31668264 -285.77753048 29.35071809 -285.66210938 34.38476562 C-285.43650921 44.25640389 -285.21649718 54.12815819 -285 64 C-284.7235817 63.52134995 -284.44716339 63.04269989 -284.16236877 62.54954529 C-282.88438898 60.34188058 -281.60044118 58.13774171 -280.31640625 55.93359375 C-279.88187134 55.1809021 -279.44733643 54.42821045 -278.99963379 53.65270996 C-272.62269788 42.73305639 -264.65296312 33.19576892 -256 24 C-255.42507813 23.360625 -254.85015625 22.72125 -254.2578125 22.0625 C-226.77019116 -7.25762943 -184.91590759 -22.49391236 -146 -28 C-145.17419434 -28.11714355 -144.34838867 -28.23428711 -143.49755859 -28.35498047 C-94.05917419 -34.97364621 -42.66779078 -26.58134547 0 0 Z " fill="#269AC0" transform="translate(6706,1002)"/>
</svg>
