<?xml version="1.0" encoding="UTF-8"?>
<svg version="1.1" xmlns="http://www.w3.org/2000/svg" width="4501" height="4501">
<path d="M0 0 C1.39345291 0.01686254 2.78690588 0.03372088 4.18035889 0.05057526 C24.26593604 0.29404387 44.35116502 0.55881706 64.43617314 0.84540391 C68.7002075 0.9061551 72.96425886 0.96539788 77.22833383 1.02322584 C119.37398489 1.5953949 161.52426226 2.40997511 203.5625 5.6875 C204.62112244 5.76859009 205.67974487 5.84968018 206.77044678 5.93322754 C252.43828986 9.47417204 297.86387228 15.2318775 343 23 C343.92673523 23.1589978 344.85347046 23.31799561 345.80828857 23.48181152 C403.58754824 33.43249192 461.16025203 46.37072291 516.99383545 64.35473633 C518.95970423 64.98703925 520.9271278 65.6142594 522.89501953 66.24023438 C578.46522123 83.99410975 632.75763517 107.45130208 683.35009766 136.49365234 C686.47449711 138.26972979 689.62729162 139.9886585 692.78588867 141.70288086 C728.02972262 160.90243229 761.29012693 184.49132847 793 209 C793.68787598 209.53044922 794.37575195 210.06089844 795.08447266 210.60742188 C802.52232159 216.3532031 809.77466938 222.27915418 816.91796875 228.38671875 C819.73635029 230.79081313 822.61171953 233.11767994 825.5 235.4375 C830.2549105 239.30390167 834.76661645 243.38528868 839.234375 247.57592773 C842.09879227 250.26131892 844.99961752 252.89019051 847.9609375 255.46875 C859.44969478 265.47618801 870.28137665 276.18020647 881.0625 286.9375 C881.87314407 287.74426178 881.87314407 287.74426178 882.70016479 288.56732178 C888.11590302 293.96258365 893.46167708 299.37246528 898.43237305 305.18725586 C901.14463805 308.32361587 904.02326119 311.30350942 906.875 314.3125 C911.69258232 319.4350247 916.28767105 324.64910531 920.67578125 330.1484375 C922.92249066 332.9049045 925.24140736 335.57559389 927.59228516 338.24267578 C934.62351608 346.2265919 941.12550187 354.52790732 947.51269531 363.03222656 C948.86603705 364.82276077 950.23528689 366.59865213 951.6171875 368.3671875 C973.96584856 396.99917818 993.36179602 427.81490206 1010.33740234 459.88525391 C1012.33099184 463.62008721 1014.37988179 467.32213094 1016.43481445 471.0234375 C1030.27445203 496.02346768 1042.61809868 521.79840826 1054 548 C1054.29414795 548.67597229 1054.5882959 549.35194458 1054.89135742 550.04840088 C1080.03360767 607.93186506 1100.12344405 667.94654313 1116 729 C1116.37741333 730.44391113 1116.37741333 730.44391113 1116.76245117 731.91699219 C1146.00051948 843.92920142 1160.48501034 959.33799547 1162.36019897 1209.77960205 C1161.1597193 1227.94129656 1160.5403294 1246.0942306 1160.05747223 1264.28538895 C1159.3729979 1289.91628565 1158.41199113 1315.4643146 1156 1341 C1155.91727844 1341.87736816 1155.83455688 1342.75473633 1155.74932861 1343.65869141 C1146.76537326 1437.85448471 1126.23487719 1531.32834039 976 1839 C975.13212943 1840.22607928 974.26489065 1841.45260614 973.3984375 1842.6796875 C958.75174527 1863.37436961 943.5341009 1883.65301617 927.43994141 1903.24414062 C926.15634299 1904.80935592 924.88036928 1906.380817 923.60546875 1907.953125 C915.1092452 1918.42414646 906.33013178 1928.63421654 897.21484375 1938.5703125 C895.35993183 1940.60515415 893.54571202 1942.66321247 891.75 1944.75 C881.03055699 1957.03882336 869.54354366 1968.61785832 858.00244141 1980.12792969 C855.6033127 1982.52163831 853.2096573 1984.92072881 850.81640625 1987.3203125 C849.26594595 1988.87011282 847.71517591 1990.41960335 846.1640625 1991.96875 C845.46181549 1992.67302124 844.75956848 1993.37729248 844.03604126 1994.10290527 C840.07519357 1998.0452551 836.01786218 2001.81622726 831.77922058 2005.45889282 C829.01180061 2007.85594849 826.3574077 2010.37064511 823.6875 2012.875 C818.91242398 2017.3178788 814.01180267 2021.52322907 808.921875 2025.60546875 C806.14518923 2027.88101471 803.44691832 2030.22263606 800.75415039 2032.59570312 C792.84421624 2039.55915821 784.61950653 2045.98522259 776.20458984 2052.32324219 C773.95942304 2054.03086185 771.73665481 2055.76396418 769.51953125 2057.5078125 C768.76389893 2058.10150635 768.0082666 2058.6952002 767.22973633 2059.30688477 C765.82738784 2060.41104419 764.42716501 2061.51791411 763.0300293 2062.62866211 C749.78863915 2073.02590038 735.68929376 2082.35607781 721.6875 2091.6875 C720.91375031 2092.20335663 720.14000061 2092.71921326 719.34280396 2093.2507019 C636.95737259 2148.07919479 545.35258041 2188.08623613 160 2258.6875 C159.25358246 2258.73934071 158.50716492 2258.79118141 157.73812866 2258.84459305 C140.66493509 2260.02811065 123.58672181 2261.11280094 106.5 2262.08203125 C105.46937943 2262.14159783 105.46937943 2262.14159783 104.41793823 2262.20236778 C81.92097252 2263.4951807 59.42165435 2264.14104828 36.8894043 2264.26538086 C34.49994824 2264.28167539 32.1104947 2264.2983432 29.72104359 2264.31534672 C24.6038516 2264.35100614 19.48665212 2264.38416246 14.36943054 2264.4152832 C6.83612027 2264.46114482 -0.6971511 2264.51175225 -8.23042156 2264.56370126 C-20.00614124 2264.64486519 -31.78187541 2264.72358757 -43.55762373 2264.80047752 C-74.69334161 2265.00388369 -105.82891919 2265.22737646 -136.96449134 2265.45183578 C-139.3168324 2265.46878121 -141.66917373 2265.48569079 -144.02151513 2265.50258899 C-234.81062 2266.1549072 -325.59738028 2266.98763945 -850.28076172 2277.59082031 C-865.51980267 2278.08405206 -880.75963247 2278.54973126 -896 2279 C-895.48974775 2272.42946011 -894.92799936 2265.90181988 -893.984375 2259.37890625 C-893.78493529 2257.96405979 -893.5863295 2256.5490956 -893.38842773 2255.1340332 C-893.23263748 2254.02470932 -893.23263748 2254.02470932 -893.07369995 2252.89297485 C-885.37468617 2197.46399521 -882.0812256 2141.42323233 -879.375 2085.5625 C-879.31842224 2084.41162903 -879.26184448 2083.26075806 -879.20355225 2082.07501221 C-878.79391525 2073.6311556 -878.44363004 2065.18533694 -878.10878377 2056.73824322 C-878.03401557 2054.85622052 -877.95866309 2052.97422097 -877.88282295 2051.09224117 C-876.31115496 2011.97117361 -875.69410268 1972.90987644 -875.69788973 1933.76019343 C-875.69822251 1925.80539267 -875.68668584 1917.85061726 -875.67505047 1909.89582653 C-875.6538564 1895.20766832 -875.64130016 1880.51951572 -875.63390923 1865.8313446 C-875.6265283 1851.27796181 -875.6145585 1836.72459307 -875.59700203 1822.17121887 C-875.59589829 1821.25568334 -875.59479454 1820.34014781 -875.59365735 1819.39686878 C-875.58801772 1814.74284774 -875.58229042 1810.08882681 -875.57652331 1805.43480593 C-875.53595605 1772.6201172 -875.50357161 1739.80542536 -875.47680664 1706.99072266 C-875.47519342 1705.01635792 -875.47357999 1703.04199318 -875.47196633 1701.06762844 C-875.47116719 1700.08950989 -875.47036804 1699.11139133 -875.46954467 1698.10363282 C-875.46550249 1693.15756918 -875.46145409 1688.21150553 -875.45739746 1683.26544189 C-875.45659426 1682.28517752 -875.45579107 1681.30491314 -875.45496353 1680.29494378 C-875.4363129 1657.59034465 -875.4150196 1634.88574826 -875.39282227 1612.18115234 C-875.39187433 1611.20958611 -875.39092639 1610.23801988 -875.38994972 1609.23701224 C-875.36816337 1586.92918322 -875.34523442 1564.6213557 -875.32029057 1542.31352997 C-875.31923471 1541.36817272 -875.31817886 1540.42281547 -875.31709102 1539.44881104 C-875.30756868 1530.93030073 -875.29800858 1522.41179046 -875.28822399 1513.89328045 C-875.26511842 1493.77222405 -875.24390914 1473.65117051 -875.22979546 1453.53010559 C-875.2154111 1433.1105601 -875.19794738 1412.69102063 -875.17358398 1392.27148438 C-875.17263816 1391.47178355 -875.17169233 1390.67208272 -875.17071784 1389.84814854 C-875.10651324 1336.22794406 -874.79268765 1282.61510266 -874 1229 C-871.27163323 1229.31489248 -868.5434701 1229.63140056 -865.81539917 1229.94883728 C-865.04686206 1230.0373689 -864.27832495 1230.12590053 -863.48649883 1230.21711493 C-858.22145921 1230.83144809 -853.01846652 1231.58273202 -847.8203125 1232.62890625 C-847.051996 1232.77890076 -846.2836795 1232.92889526 -845.49208069 1233.08343506 C-843.03448102 1233.56742982 -840.57954855 1234.06327537 -838.125 1234.5625 C-837.2651651 1234.73607025 -836.4053302 1234.9096405 -835.5194397 1235.08847046 C-752.84776152 1251.85433424 -672.73676446 1283.33504208 -600 1326 C-598.1250356 1327.089905 -596.25003511 1328.17974791 -594.375 1329.26953125 C-567.11312914 1345.18389323 -540.56052664 1362.46907387 -515 1381 C-514.25379395 1381.54043945 -513.50758789 1382.08087891 -512.73876953 1382.63769531 C-496.00949442 1394.78744819 -479.7288516 1407.47021049 -463.73974609 1420.57617188 C-462.18051673 1421.85226304 -460.615989 1423.12187381 -459.05078125 1424.390625 C-448.87166528 1432.65279796 -438.92726498 1441.18593162 -429.21875 1449.99609375 C-427.20691607 1451.81311982 -425.17339566 1453.59944392 -423.125 1455.375 C-418.25197133 1459.62800117 -413.48564468 1463.99586045 -408.73974609 1468.38964844 C-407.56700771 1469.47516379 -406.39282131 1470.55911661 -405.21728516 1471.64160156 C-395.38554511 1480.70948506 -385.84133752 1490.05373445 -376.375 1499.5 C-375.53059357 1500.34052414 -375.53059357 1500.34052414 -374.66912842 1501.19802856 C-369.1259652 1506.72105285 -363.63715799 1512.24779469 -358.55224609 1518.20263672 C-355.8468305 1521.33526798 -352.97197457 1524.30907188 -350.125 1527.3125 C-344.45507049 1533.33287369 -339.15331256 1539.5295877 -334 1546 C-333.67 1546.33 -333.34 1546.66 -333 1547 C-332.90192941 1550.14764224 -332.87009687 1553.27336069 -332.87974548 1556.42140198 C-332.87889106 1557.42272673 -332.87803663 1558.42405148 -332.87715632 1559.45571941 C-332.87549849 1562.83841727 -332.88102782 1566.22106642 -332.88647461 1569.60375977 C-332.88675644 1572.01766967 -332.88659882 1574.43157965 -332.8860321 1576.8454895 C-332.88580379 1582.05657492 -332.88865513 1587.26764915 -332.89426994 1592.47873116 C-332.90238284 1600.0131629 -332.90499995 1607.54758857 -332.90625793 1615.08202421 C-332.90844879 1627.30493037 -332.91510977 1639.52782988 -332.92456055 1651.75073242 C-332.93373381 1663.62703417 -332.94081506 1675.5033341 -332.94506836 1687.37963867 C-332.94533108 1688.11118986 -332.94559381 1688.84274106 -332.94586449 1689.59646047 C-332.94716949 1693.26628728 -332.94843321 1696.93611411 -332.94967639 1700.60594094 C-332.96005004 1731.07063206 -332.97774337 1761.53531511 -333 1792 C-283.06309919 1791.94087909 -233.12624213 1791.86614579 -183.18939625 1791.77101372 C-177.26892388 1791.75974806 -171.34845127 1791.74860921 -165.42797852 1791.73754883 C-164.24951781 1791.73534514 -163.0710571 1791.73314146 -161.85688546 1791.730871 C-142.87570489 1791.69567786 -123.89452435 1791.67071286 -104.91332344 1791.64965298 C-85.37855604 1791.6277465 -65.84383029 1791.59455839 -46.30909842 1791.55129844 C-34.29414264 1791.52503466 -22.27923854 1791.50715437 -10.26425555 1791.50065396 C-1.98013226 1791.49532142 6.30392648 1791.478849 14.58801492 1791.45433434 C19.33882106 1791.44058225 24.08951246 1791.43104599 28.84033966 1791.43499184 C98.64443391 1791.48095509 169.13938435 1784.93136016 236 1764 C237.44802002 1763.55019775 237.44802002 1763.55019775 238.92529297 1763.09130859 C303.08567494 1742.9807032 364.97107827 1709.40521332 414.375 1663.4140625 C416.41645973 1661.53664864 418.48383179 1659.72812188 420.58984375 1657.92578125 C425.62602789 1653.53344425 430.33301931 1648.81718161 435.0456543 1644.0847168 C436.5599258 1642.56508332 438.0794743 1641.05087483 439.59960938 1639.53710938 C444.94320218 1634.19749753 450.11617965 1628.76782813 455 1623 C455.88856472 1621.97850664 456.77784366 1620.95763395 457.66796875 1619.9375 C480.44700876 1593.37961149 498.61029102 1564.02407348 514.4921875 1532.93017578 C516.26300316 1529.48889833 518.0797267 1526.07396126 519.9050293 1522.66137695 C556.30359413 1454.44593575 579.2260615 1379.07056962 592 1303 C592.22957524 1301.65363224 592.45922891 1300.30727785 592.68896484 1298.9609375 C598.55242723 1264.31489987 602.3544831 1229.0971632 604 1194 C604.04130035 1193.15921906 604.08260071 1192.31843811 604.12515259 1191.45217896 C604.96900915 1173.98713509 605.20205981 1156.54640622 605.1875 1139.0625 C605.18723312 1138.38973778 605.18696625 1137.71697556 605.18669128 1137.0238266 C605.17477409 1112.96790145 604.6726601 1089.00222752 603 1065 C602.93683594 1064.08162354 602.87367187 1063.16324707 602.80859375 1062.21704102 C597.74442502 989.22722682 586.59881505 916.81924912 568.9375 845.8125 C568.65203308 844.65942352 568.36656616 843.50634705 568.07244873 842.31832886 C562.69479545 820.69957459 556.73995971 799.16950443 548.6875 778.375 C548.22657959 777.17464111 547.76565918 775.97428223 547.29077148 774.73754883 C542.68730244 762.92002601 537.50412354 751.42148681 532 740 C531.53513184 739.02256836 531.07026367 738.04513672 530.59130859 737.03808594 C517.53716756 709.67588981 501.56384007 683.96481794 483 660 C482.56977539 659.43974121 482.13955078 658.87948242 481.69628906 658.30224609 C476.44820846 651.47303688 471.11414931 644.80862623 465.265625 638.4765625 C464.03951768 637.13630036 462.82036532 635.78877729 461.64355469 634.4050293 C456.25267854 628.0826537 450.41229501 622.22618859 444.54052734 616.35522461 C442.76238228 614.57489748 440.99240439 612.78671623 439.22265625 610.99804688 C432.45610575 604.19803862 425.54577969 597.93660851 418 592 C416.68272133 590.91566805 415.36857961 589.82750624 414.05859375 588.734375 C345.92013893 532.40103469 259.07691742 499.00905875 94.07993317 482.09651184 C91.93934909 481.99718571 89.79886404 481.89590037 87.65838623 481.79431152 C18.1141757 478.51052929 -51.39895205 478.65818913 -121 479 C-121.35289597 477.98422379 -121.70579193 476.96844757 -122.06938171 475.92189026 C-131.47604553 448.7572516 -131.47604553 448.7572516 -141.8125 421.9375 C-142.13772644 421.13122162 -142.46295288 420.32494324 -142.79803467 419.49423218 C-153.83855792 392.14070646 -166.0139281 365.31091321 -179.07879639 338.86779785 C-180.04028794 336.91831369 -180.99739472 334.96672401 -181.95361328 333.01464844 C-189.53718793 317.5430314 -197.31757293 302.27510679 -205.9375 287.34765625 C-208.47926993 282.94357567 -210.90900084 278.48916273 -213.30761719 274.00585938 C-220.07430551 261.37043188 -227.47382647 249.15715815 -234.97317505 236.94976807 C-237.58834372 232.6878258 -240.15209008 228.39758672 -242.69873047 224.09448242 C-249.77122365 212.15889353 -257.34097925 200.56555583 -265 189 C-265.61198242 188.07445312 -266.22396484 187.14890625 -266.85449219 186.1953125 C-278.28308031 168.92707662 -289.988492 151.86770833 -302 135 C-302.50756836 134.28618164 -303.01513672 133.57236328 -303.53808594 132.83691406 C-311.8754574 121.13303299 -320.52122748 109.68314724 -329.26123047 98.27783203 C-331.46676912 95.38852066 -333.64213682 92.47831887 -335.8125 89.5625 C-344.4114029 78.07020444 -353.44429136 66.92272093 -362.5234375 55.80859375 C-363.83047541 54.2076452 -365.13423356 52.60402024 -366.4375 51 C-370.86910576 45.55545578 -375.37045109 40.17578181 -379.92114258 34.83081055 C-382.77533936 31.47202634 -385.5593793 28.06767783 -388.3125 24.625 C-392.70629987 19.20065434 -397.46298798 14.14945597 -402.30395508 9.12548828 C-403.17250122 8.21452393 -403.17250122 8.21452393 -404.05859375 7.28515625 C-404.57736084 6.74769775 -405.09612793 6.21023926 -405.63061523 5.65649414 C-407.10512653 3.87283233 -407.99817021 2.07776826 -409 0 C-314.34427194 -1.48237511 -219.66426616 -1.28069639 0 0 Z " fill="#45AED6" transform="translate(2202,655)"/>
<path d="M0 0 C2.82745169 0.6561446 5.58576039 1.47011323 8.35546875 2.3359375 C9.12680649 2.57079865 9.89814423 2.80565979 10.69285583 3.04763794 C13.19423302 3.81357982 15.69110575 4.59298119 18.1875 5.375 C19.04970154 5.6428833 19.91190308 5.9107666 20.80023193 6.18676758 C100.77157565 31.0738778 176.65262807 69.34585375 242 122 C243.39412109 123.11955078 243.39412109 123.11955078 244.81640625 124.26171875 C256.29694137 133.56980909 267.43557929 143.23415719 278.22265625 153.3359375 C280.18706904 155.17514596 282.15602005 157.00943227 284.125 158.84375 C285.54192169 160.16639352 286.95859174 161.48930667 288.375 162.8125 C289.35605713 163.72769409 289.35605713 163.72769409 290.35693359 164.66137695 C301.58170341 175.17834282 301.58170341 175.17834282 306.5 181 C308.7455794 183.60647609 311.04551512 186.08934521 313.5 188.5 C317.21213359 192.16296626 320.60680882 196.04234601 324 200 C324.90715539 201.0433138 325.81474081 202.08625379 326.72265625 203.12890625 C333.74691228 211.2223717 340.48771746 219.4898675 347 228 C347.55526367 228.72396973 348.11052734 229.44793945 348.68261719 230.19384766 C362.66853226 248.48459821 376.07414946 267.16267401 387.8046875 286.99023438 C388.93719529 288.89440188 390.08887877 290.785053 391.25 292.671875 C397.36929401 302.65061251 402.97023465 312.90229312 408.50341797 323.21533203 C409.91120313 325.83477699 411.33195789 328.4468205 412.75390625 331.05859375 C433.49347757 369.50552518 449.5802261 411.28877795 460.8125 453.5 C461.18532104 454.88699097 461.18532104 454.88699097 461.56567383 456.30200195 C461.77732178 457.14077881 461.98896973 457.97955566 462.20703125 458.84375 C462.47737183 459.91399414 462.47737183 459.91399414 462.75317383 461.00585938 C463.03202388 463.25872505 462.67911178 464.84952965 462 467 C460.95740726 465.313072 459.91604358 463.62538446 458.875 461.9375 C458.51937988 461.36225586 458.16375977 460.78701172 457.79736328 460.19433594 C455.54336842 456.53875244 453.32014802 452.86702717 451.125 449.17578125 C432.62243631 418.20173395 412.05622189 388.5368383 390 360 C389.46955078 359.31212402 388.93910156 358.62424805 388.39257812 357.91552734 C382.6467969 350.47767841 376.72084582 343.22533062 370.61328125 336.08203125 C368.20918687 333.26364971 365.88232006 330.38828047 363.5625 327.5 C359.69609833 322.7450895 355.61471132 318.23338355 351.42407227 313.765625 C348.75362464 310.91714753 346.1401254 308.03270325 343.578125 305.0859375 C333.85330601 293.92006025 323.4510944 283.35649155 313 272.875 C311.69264893 271.5607605 311.69264893 271.5607605 310.35888672 270.2199707 C305.99272544 265.86427481 301.56325722 261.65873751 296.88525391 257.64013672 C293.73110981 254.89608854 290.72142398 252.00036918 287.6875 249.125 C282.5649753 244.30741768 277.35089469 239.71232895 271.8515625 235.32421875 C269.09540616 233.07776256 266.42498931 230.75916562 263.75830078 228.40844727 C255.83262612 221.42904515 247.59931811 214.96953868 239.15722656 208.62939453 C237.00740823 207.00559558 234.87268172 205.36389526 232.7421875 203.71484375 C174.26926011 158.48132385 108.14442355 120.25939869 38.3125 95.625 C36.68235962 95.04347168 36.68235962 95.04347168 35.01928711 94.45019531 C34.01905518 94.10827148 33.01882324 93.76634766 31.98828125 93.4140625 C30.68177612 92.96474365 30.68177612 92.96474365 29.34887695 92.50634766 C26.75282419 91.94671628 25.448265 92.00739938 23 93 C20.94385975 94.97493866 19.06570365 96.93114845 17.1875 99.0625 C16.6519751 99.65667725 16.1164502 100.25085449 15.56469727 100.86303711 C12.28537275 104.51197493 9.04872313 108.19915393 5.83984375 111.91015625 C3.43329844 114.64370559 0.96696804 117.32114006 -1.5 120 C-4.53890177 123.30026876 -7.561561 126.60949347 -10.5 130 C-13.9067735 133.9308925 -17.43002785 137.75196573 -20.953125 141.578125 C-23.50555143 144.35494057 -26.02983288 147.14980717 -28.5 150 C-31.9067735 153.9308925 -35.43002785 157.75196573 -38.953125 161.578125 C-41.50555143 164.35494057 -44.02983288 167.14980717 -46.5 170 C-49.9067735 173.9308925 -53.43002785 177.75196573 -56.953125 181.578125 C-59.50555143 184.35494057 -62.02983288 187.14980717 -64.5 190 C-67.9067735 193.9308925 -71.43002785 197.75196573 -74.953125 201.578125 C-77.50555143 204.35494057 -80.02983288 207.14980717 -82.5 210 C-85.9067735 213.9308925 -89.43002785 217.75196573 -92.953125 221.578125 C-95.50555143 224.35494057 -98.02983288 227.14980717 -100.5 230 C-103.9067735 233.9308925 -107.43002785 237.75196573 -110.953125 241.578125 C-113.50555143 244.35494057 -116.02983288 247.14980717 -118.5 250 C-121.9067735 253.9308925 -125.43002785 257.75196573 -128.953125 261.578125 C-131.50555143 264.35494057 -134.02983288 267.14980717 -136.5 270 C-139.9067735 273.9308925 -143.43002785 277.75196573 -146.953125 281.578125 C-149.50555143 284.35494057 -152.02983288 287.14980717 -154.5 290 C-157.9067735 293.9308925 -161.43002785 297.75196573 -164.953125 301.578125 C-167.50555143 304.35494057 -170.02983288 307.14980717 -172.5 310 C-175.9067735 313.9308925 -179.43002785 317.75196573 -182.953125 321.578125 C-185.50555143 324.35494057 -188.02983288 327.14980717 -190.5 330 C-193.9067735 333.9308925 -197.43002785 337.75196573 -200.953125 341.578125 C-203.50555143 344.35494057 -206.02983288 347.14980717 -208.5 350 C-211.9067735 353.9308925 -215.43002785 357.75196573 -218.953125 361.578125 C-221.50555143 364.35494057 -224.02983288 367.14980717 -226.5 370 C-229.9067735 373.9308925 -233.43002785 377.75196573 -236.953125 381.578125 C-239.50555143 384.35494057 -242.02983288 387.14980717 -244.5 390 C-247.9067735 393.9308925 -251.43002785 397.75196573 -254.953125 401.578125 C-257.50555143 404.35494057 -260.02983288 407.14980717 -262.5 410 C-265.43844175 413.39050971 -268.46120625 416.69962885 -271.5 420 C-275.17451729 423.99252825 -278.81138943 428.0109752 -282.36328125 432.11328125 C-283.56037068 433.49321967 -284.76754154 434.86443041 -285.98046875 436.23046875 C-286.94919922 437.32294922 -286.94919922 437.32294922 -287.9375 438.4375 C-288.52402344 439.09621094 -289.11054687 439.75492188 -289.71484375 440.43359375 C-291.10571451 441.79115912 -291.10571451 441.79115912 -291 443 C-290.12827148 443.13986328 -289.25654297 443.27972656 -288.35839844 443.42382812 C-220.15811232 454.47373122 -155.82896473 474.05268478 -94 505 C-92.59065186 505.69875244 -92.59065186 505.69875244 -91.15283203 506.41162109 C-58.70470561 522.56690026 -27.75994291 543.00750828 1 565 C1.64211426 565.49048828 2.28422852 565.98097656 2.94580078 566.48632812 C10.94445832 572.62468708 18.70236572 579.02499586 26.35253906 585.59082031 C28.0280879 587.02402539 29.71226974 588.44649738 31.3984375 589.8671875 C45.83794914 602.07105065 59.35552251 615.18804188 72.70068359 628.5703125 C75.02196315 630.89701445 77.34862663 633.21823828 79.67578125 635.5390625 C81.18000867 637.04394988 82.68392631 638.54914697 84.1875 640.0546875 C84.86989746 640.73506073 85.55229492 641.41543396 86.25537109 642.11642456 C90.16498867 646.0449499 93.897588 650.07786152 97.51528931 654.2771759 C99.42629659 656.49466474 101.39994512 658.65204725 103.375 660.8125 C107.19597138 665.05088843 110.84247331 669.39879103 114.4296875 673.8359375 C116.35180461 676.2128481 118.29965269 678.56675943 120.2578125 680.9140625 C127.60628372 689.73611658 134.67950056 698.69923325 141.48144531 707.94873047 C143.00035352 710.00047754 144.54044954 712.03462668 146.0859375 714.06640625 C162.69478007 736.04773933 177.89606843 759.34208226 192 783 C192.84135498 784.41104004 192.84135498 784.41104004 193.69970703 785.85058594 C202.13450486 800.05338239 210.22286448 814.42733453 218 829 C218.47614746 829.88913086 218.95229492 830.77826172 219.44287109 831.69433594 C251.03833442 890.86771298 277.12712841 953.65870053 295.375 1018.25 C295.66271271 1019.26234207 295.66271271 1019.26234207 295.95623779 1020.2951355 C299.22291221 1031.87419859 299.22291221 1031.87419859 299 1037 C296.30679677 1033.76837323 294.07568209 1030.58402351 292.07421875 1026.88671875 C291.53361816 1025.89953857 290.99301758 1024.9123584 290.43603516 1023.89526367 C289.57051025 1022.30742065 289.57051025 1022.30742065 288.6875 1020.6875 C277.94995803 1001.3070343 265.95565033 982.81025133 253.6875 964.375 C253.18148254 963.61399994 252.67546509 962.85299988 252.15411377 962.06893921 C245.61396377 952.24649906 238.9240707 942.55559489 232 933 C231.06812866 931.70763428 231.06812866 931.70763428 230.11743164 930.38916016 C222.51994977 919.88300292 214.63889939 909.67470861 206.38085938 899.68066406 C204.51780455 897.4131129 202.69562664 895.11418653 200.875 892.8125 C197.37860866 888.42544898 193.76506956 884.14519707 190.12524414 879.87719727 C187.29087525 876.54845605 184.5338462 873.17245638 181.8125 869.75 C177.1611473 864.02590289 172.11140944 858.69988905 167.02270508 853.36425781 C163.65608846 849.83369212 160.35073612 846.27277745 157.12890625 842.609375 C150.50158364 835.21244158 143.40939551 828.26060893 136.37963867 821.24926758 C133.93618078 818.81118368 131.49813193 816.36778211 129.06054688 813.92382812 C127.48729979 812.35124167 125.91374263 810.77896536 124.33984375 809.20703125 C123.62191147 808.48707474 122.90397919 807.76711823 122.16429138 807.02534485 C118.15857191 803.03789594 114.06071627 799.21821377 109.77304077 795.53492737 C107.00718026 793.14051261 104.35528243 790.6273614 101.6875 788.125 C96.91242398 783.6821212 92.01180267 779.47677093 86.921875 775.39453125 C84.14518923 773.11898529 81.44691832 770.77736394 78.75415039 768.40429688 C70.84421624 761.44084179 62.61950653 755.01477741 54.20458984 748.67675781 C51.19783853 746.38989535 48.23185423 744.05281136 45.26342773 741.71655273 C36.77285624 735.04296903 28.10366553 728.70494202 19.22900391 722.55371094 C16.89620673 720.92765166 14.57795739 719.2823621 12.26171875 717.6328125 C0.10049676 708.99449379 -12.32318588 700.8602347 -25 693 C-26.07813965 692.3306543 -27.1562793 691.66130859 -28.26708984 690.97167969 C-97.80785345 647.93927607 -172.05438234 614.24165053 -606 532 C-606 530 -606 530 -604.63671875 528.625 C-603.99347656 528.08875 -603.35023438 527.5525 -602.6875 527 C-599.22982451 524.06250578 -595.84755259 521.06275384 -592.5 518 C-588.71337002 514.54671847 -584.8952368 511.13900949 -581.02734375 507.77734375 C-578.66510827 505.70640513 -576.33204147 503.60487152 -574 501.5 C-570.38323655 498.23609152 -566.73610392 495.01209051 -563.0625 491.8125 C-560.69035571 489.72788836 -558.34443935 487.61571356 -556 485.5 C-553.01937279 482.81016569 -550.02754767 480.13689636 -547 477.5 C-542.28298716 473.38918961 -537.64361111 469.19332155 -533 465 C-527.72014424 460.23213025 -522.42708194 455.48487782 -517.0625 450.8125 C-514.69035571 448.72788836 -512.34443935 446.61571356 -510 444.5 C-506.38323655 441.23609152 -502.73610392 438.01209051 -499.0625 434.8125 C-496.69035571 432.72788836 -494.34443935 430.61571356 -492 428.5 C-489.01937279 425.81016569 -486.02754767 423.13689636 -483 420.5 C-478.28298716 416.38918961 -473.64361111 412.19332155 -469 408 C-463.72014424 403.23213025 -458.42708194 398.48487782 -453.0625 393.8125 C-450.69035571 391.72788836 -448.34443935 389.61571356 -446 387.5 C-442.38323655 384.23609152 -438.73610392 381.01209051 -435.0625 377.8125 C-432.69035571 375.72788836 -430.34443935 373.61571356 -428 371.5 C-425.01937279 368.81016569 -422.02754767 366.13689636 -419 363.5 C-414.28298716 359.38918961 -409.64361111 355.19332155 -405 351 C-399.72014424 346.23213025 -394.42708194 341.48487782 -389.0625 336.8125 C-386.69035571 334.72788836 -384.34443935 332.61571356 -382 330.5 C-378.38323655 327.23609152 -374.73610392 324.01209051 -371.0625 320.8125 C-368.69035571 318.72788836 -366.34443935 316.61571356 -364 314.5 C-361.01937279 311.81016569 -358.02754767 309.13689636 -355 306.5 C-350.28298716 302.38918961 -345.64361111 298.19332155 -341 294 C-335.72014424 289.23213025 -330.42708194 284.48487782 -325.0625 279.8125 C-322.69035571 277.72788836 -320.34443935 275.61571356 -318 273.5 C-314.38323655 270.23609152 -310.73610392 267.01209051 -307.0625 263.8125 C-304.69035571 261.72788836 -302.34443935 259.61571356 -300 257.5 C-297.01937279 254.81016569 -294.02754767 252.13689636 -291 249.5 C-286.28298716 245.38918961 -281.64361111 241.19332155 -277 237 C-271.72014424 232.23213025 -266.42708194 227.48487782 -261.0625 222.8125 C-258.69035571 220.72788836 -256.34443935 218.61571356 -254 216.5 C-250.38323655 213.23609152 -246.73610392 210.01209051 -243.0625 206.8125 C-240.69035571 204.72788836 -238.34443935 202.61571356 -236 200.5 C-232.38323655 197.23609152 -228.73610392 194.01209051 -225.0625 190.8125 C-221.8248667 187.9673071 -218.6331371 185.07146164 -215.43359375 182.18359375 C-213.32488854 180.29151315 -211.20080199 178.42094242 -209.0625 176.5625 C-205.83440488 173.75177475 -202.66261557 170.884201 -199.5 168 C-195.71337002 164.54671847 -191.8952368 161.13900949 -188.02734375 157.77734375 C-185.66510827 155.70640513 -183.33204147 153.60487152 -181 151.5 C-177.38323655 148.23609152 -173.73610392 145.01209051 -170.0625 141.8125 C-167.69035571 139.72788836 -165.34443935 137.61571356 -163 135.5 C-160.01937279 132.81016569 -157.02754767 130.13689636 -154 127.5 C-149.28298716 123.38918961 -144.64361111 119.19332155 -140 115 C-134.72014424 110.23213025 -129.42708194 105.48487782 -124.0625 100.8125 C-121.69035571 98.72788836 -119.34443935 96.61571356 -117 94.5 C-113.38323655 91.23609152 -109.73610392 88.01209051 -106.0625 84.8125 C-103.69035571 82.72788836 -101.34443935 80.61571356 -99 78.5 C-96.01937279 75.81016569 -93.02754767 73.13689636 -90 70.5 C-85.28298716 66.38918961 -80.64361111 62.19332155 -76 58 C-70.72014424 53.23213025 -65.42708194 48.48487782 -60.0625 43.8125 C-57.69035571 41.72788836 -55.34443935 39.61571356 -53 37.5 C-49.38323655 34.23609152 -45.73610392 31.01209051 -42.0625 27.8125 C-39.69035571 25.72788836 -37.34443935 23.61571356 -35 21.5 C-31.39004427 18.24223507 -27.7511221 15.02286993 -24.08203125 11.83203125 C-20.75124635 8.9011905 -17.4771284 5.90771052 -14.19921875 2.91796875 C-9.07077088 -1.55462078 -6.36721481 -1.15015567 0 0 Z " fill="#E69A52" transform="translate(1493,588)"/>
<path d="M0 0 C2.51310691 0.86128993 5.02406601 1.72761021 7.53369141 2.59887695 C8.906878 3.07162478 10.28020813 3.54395585 11.65367126 4.01589966 C15.31176695 5.27428752 18.96772848 6.53876756 22.62326431 7.80456924 C25.6468844 8.85066234 28.67177162 9.89306241 31.69669819 10.93537045 C51.51103867 17.76290385 71.31203244 24.62954718 91.09179688 31.55664062 C91.90548233 31.84159393 92.71916779 32.12654724 93.55751038 32.4201355 C95.03363318 32.93738096 96.5095928 33.45509253 97.9853363 33.97341919 C101.81593689 35.31670782 105.65576906 36.62651809 109.51025391 37.8996582 C108.18169197 40.82609058 106.71461213 42.96973451 104.49853516 45.2902832 C103.90919189 45.91314209 103.31984863 46.53600098 102.71264648 47.17773438 C101.77714966 48.15383667 101.77714966 48.15383667 100.82275391 49.1496582 C99.54061011 50.50428154 98.2593487 51.85974063 96.97900391 53.21606445 C96.37056641 53.85946777 95.76212891 54.50287109 95.13525391 55.16577148 C92.78316523 57.67546706 90.53046958 60.26209172 88.29150391 62.87231445 C85.40836727 66.15377918 82.41576918 69.33876541 79.41577148 72.51367188 C76.36532824 75.79280216 73.89690327 79.13244118 71.51025391 82.8996582 C72.12259384 83.00900192 72.73493378 83.11834564 73.36582947 83.23100281 C79.41264728 84.36714035 85.13650038 85.9244956 90.95166016 87.91918945 C91.82454178 88.21384598 92.6974234 88.5085025 93.59675598 88.81208801 C96.42492387 89.77068222 99.24915457 90.7401952 102.07275391 91.7121582 C103.0463385 92.04568298 104.0199231 92.37920776 105.02301025 92.72283936 C123.07447296 98.91772531 140.88661749 105.57829481 158.51025391 112.8996582 C159.13532837 113.15857849 159.76040283 113.41749878 160.40441895 113.68426514 C199.00018628 129.69575677 236.71505758 148.34784738 272.51025391 169.8996582 C273.55536133 170.52598145 274.60046875 171.15230469 275.67724609 171.79760742 C304.49375501 189.1145092 331.95470892 208.30342843 358.51025391 228.8996582 C359.13416016 229.38176758 359.75806641 229.86387695 360.40087891 230.3605957 C368.38796872 236.53864381 376.18684869 242.90164666 383.84960938 249.47729492 C385.56649358 250.9478282 387.28974073 252.41062744 389.01416016 253.87231445 C396.09697408 259.88940019 403.01933696 266.04330845 409.83213806 272.36431885 C411.1044528 273.52838324 412.38764362 274.68057406 413.67579651 275.8270874 C419.55384032 281.05980907 425.21517884 286.45734067 430.77197266 292.02856445 C432.0243145 293.27947121 432.0243145 293.27947121 433.30195618 294.5556488 C435.05010671 296.30312447 436.79701776 298.05184093 438.54272461 299.80175781 C441.1980935 302.46249848 443.85878008 305.1178375 446.52001953 307.77270508 C448.22932472 309.48267091 449.93831977 311.19294682 451.64697266 312.90356445 C452.43255051 313.68711807 453.21812836 314.47067169 454.0275116 315.27796936 C458.18302019 319.45098967 462.18379868 323.70168574 466.01976013 328.17105103 C468.24196911 330.74826836 470.56582626 333.22208198 472.88525391 335.7121582 C477.15865362 340.33746773 481.1990912 345.10047722 485.14697266 350.0090332 C487.30347318 352.64673633 489.51228357 355.22227134 491.75048828 357.79003906 C498.47292779 365.51366983 504.70599666 373.54941663 510.86474609 381.72631836 C512.49662647 383.88165947 514.14465346 386.02348951 515.79931641 388.16137695 C516.34789307 388.87189209 516.89646973 389.58240723 517.46166992 390.31445312 C518.47022857 391.61981749 519.4808116 392.92362307 520.49438477 394.22509766 C530.66434881 407.43804307 539.95442397 421.34339405 549.19775391 435.2121582 C549.97104034 436.37178574 549.97104034 436.37178574 550.75994873 437.55484009 C570.72569967 467.54798323 588.54042303 498.65975707 604.90673828 530.76000977 C606.36312206 533.61157727 607.83334606 536.45549728 609.30712891 539.2980957 C631.50535624 582.46675427 649.52036655 628.72299042 662.82275391 675.3996582 C663.11915771 676.43243896 663.41556152 677.46521973 663.72094727 678.52929688 C663.97755127 679.46620361 664.23415527 680.40311035 664.49853516 681.3684082 C664.83171753 682.58173828 664.83171753 682.58173828 665.17163086 683.81958008 C665.51025391 685.8996582 665.51025391 685.8996582 664.51025391 688.8996582 C660.42123164 683.26709773 656.60029972 677.50820511 652.94775391 671.5871582 C646.72368471 661.52198379 640.13437027 651.70466213 633.51025391 641.8996582 C633.01879883 641.17214355 632.52734375 640.44462891 632.02099609 639.69506836 C620.33728947 622.44788686 607.97648691 605.73459835 595.28759766 589.21606445 C593.76294742 587.22899283 592.24403129 585.23781738 590.72900391 583.2434082 C581.94571327 571.72246853 572.79021583 560.50095548 563.38891602 549.47949219 C560.58047462 546.18378339 557.8436648 542.84028525 555.13525391 539.4621582 C551.05934289 534.44790796 546.72172597 529.71923533 542.29003906 525.02099609 C539.54524372 522.10918939 536.85424507 519.16682244 534.23364258 516.14233398 C523.18109022 503.48356758 511.33116593 491.55805008 499.43725586 479.69628906 C497.04699284 477.31145565 494.66221633 474.92122715 492.27783203 472.53051758 C490.73192909 470.98527449 489.18571648 469.44034111 487.63916016 467.89575195 C486.9400502 467.19461777 486.24094025 466.49348358 485.52064514 465.77110291 C481.57582189 461.8447912 477.53455844 458.09004905 473.31207275 454.46336365 C470.36111015 451.90237574 467.53941384 449.20546172 464.69775391 446.5246582 C459.67816087 441.82261616 454.53011994 437.37963893 449.15869141 433.0793457 C446.33199556 430.75295 443.63966488 428.31793891 440.94775391 425.8371582 C436.84341774 422.06857873 432.64951523 418.50823175 428.26806641 415.06762695 C426.24920625 413.48056267 424.24605115 411.8810841 422.25244141 410.26293945 C412.68032029 402.50804222 402.87843553 395.08586786 392.98632812 387.74487305 C390.70464303 386.04452046 388.43574965 384.32872216 386.17041016 382.60668945 C319.05431025 331.9251659 242.99598537 290.86574698 -122.48974609 192.8996582 C-123.22618347 192.83069336 -123.96262085 192.76172852 -124.72137451 192.69067383 C-154.85341278 189.87421328 -185.25856036 190.70174757 -215.48974609 190.8996582 C-212.05543067 186.82489504 -208.57810879 182.86083356 -204.81005859 179.0871582 C-203.5396875 177.81485352 -203.5396875 177.81485352 -202.24365234 176.5168457 C-201.37611328 175.65317383 -200.50857422 174.78950195 -199.61474609 173.8996582 C-198.32503906 172.60415039 -198.32503906 172.60415039 -197.00927734 171.2824707 C-193.27981726 167.55866989 -189.54948974 163.88981706 -185.54443359 160.4621582 C-180.23970037 155.90571649 -175.39559215 150.87554013 -170.48974609 145.8996582 C-165.00157698 140.33313998 -159.51598729 134.84369344 -153.57177734 129.7590332 C-149.01111983 125.68610079 -144.7814848 121.25266579 -140.48974609 116.8996582 C-135.00157698 111.33313998 -129.51598729 105.84369344 -123.57177734 100.7590332 C-119.01111983 96.68610079 -114.7814848 92.25266579 -110.48974609 87.8996582 C-104.99141124 82.3228291 -99.49581825 76.82192207 -93.54052734 71.7277832 C-89.16182811 67.8244856 -85.10631013 63.57528341 -80.98974609 59.3996582 C-70.97262141 49.23881581 -70.97262141 49.23881581 -66.52099609 45.4309082 C-61.21917569 40.89031985 -56.38668223 35.86650301 -51.48974609 30.8996582 C-40.98222644 20.24213317 -40.98222644 20.24213317 -36.32958984 16.27856445 C-33.44722357 13.82022661 -30.86521943 11.2209108 -28.30615234 8.42700195 C-27.60554688 7.67354492 -26.90494141 6.92008789 -26.18310547 6.14379883 C-24.74669366 4.58889292 -23.33024224 3.01533815 -21.93310547 1.42504883 C-21.23121094 0.68319336 -20.52931641 -0.05866211 -19.80615234 -0.82299805 C-19.19199463 -1.50112549 -18.57783691 -2.17925293 -17.94506836 -2.87792969 C-12.55881478 -5.55954167 -5.38858284 -1.77518191 0 0 Z " fill="#E69A52" transform="translate(1269.48974609375,1516.100341796875)"/>
<path d="M0 0 C1.68073278 0.47800935 3.35046821 0.9954596 5.01098633 1.53955078 C5.99217941 1.8517305 6.9733725 2.16391022 7.98429871 2.48554993 C11.46281646 3.62594956 14.92067111 4.81743974 18.37817383 6.02001953 C19.68382335 6.47025976 20.98961822 6.92007867 22.29554749 7.36950684 C25.77596324 8.56867412 29.25423863 9.77393636 32.73209763 10.98049545 C36.33890883 12.23064553 39.94767249 13.47513557 43.55615234 14.72045898 C62.10982105 21.12704484 80.65178399 27.56806668 99.17651367 34.05786133 C99.99204208 34.34342896 100.8075705 34.62899658 101.64781189 34.92321777 C103.12197175 35.43964572 104.59592579 35.95666188 106.06959534 36.4744873 C111.03332751 38.21390993 116.01743903 39.88777746 121.01098633 41.53955078 C119.66151062 44.33094464 118.35908693 46.46078385 116.21801758 48.71142578 C115.67387207 49.28908691 115.12972656 49.86674805 114.5690918 50.46191406 C113.99304199 51.06503418 113.41699219 51.6681543 112.82348633 52.28955078 C111.63384571 53.55178183 110.44503553 54.8147961 109.25708008 56.07861328 C108.68973145 56.68092773 108.12238281 57.28324219 107.5378418 57.90380859 C105.23288826 60.37313841 103.0259478 62.92059557 100.82348633 65.48095703 C98.87518123 67.69379493 96.87214211 69.85202301 94.86425781 72.01074219 C90.56115086 76.64288936 86.49855724 81.24806388 83.01098633 86.53955078 C83.62332626 86.6488945 84.2356662 86.75823822 84.86656189 86.87089539 C90.9133797 88.00703293 96.63723281 89.56438818 102.45239258 91.55908203 C103.3252742 91.85373856 104.19815582 92.14839508 105.0974884 92.45198059 C107.92565629 93.4105748 110.749887 94.38008778 113.57348633 95.35205078 C114.54707092 95.68557556 115.52065552 96.01910034 116.52374268 96.36273193 C134.57520539 102.55761789 152.38734991 109.21818738 170.01098633 116.53955078 C170.63606079 116.79847107 171.26113525 117.05739136 171.90515137 117.32415771 C210.5009187 133.33564935 248.21579 151.98773996 284.01098633 173.53955078 C285.05609375 174.16587402 286.10120117 174.79219727 287.17797852 175.4375 C323.25805451 197.11934681 357.64013209 221.62810158 390.01098633 248.53955078 C390.59847656 249.02794434 391.1859668 249.51633789 391.79125977 250.01953125 C398.2295111 255.38834756 404.55598533 260.86619651 410.76098633 266.50439453 C412.76088008 268.31332621 414.78368065 270.08846879 416.82348633 271.85205078 C428.77829939 282.31309877 440.05389955 293.42465475 451.26977539 304.66796875 C453.89852042 307.30211061 456.53261811 309.93081582 459.16723633 312.55908203 C460.86286982 314.25537581 462.55819336 315.95197948 464.25317383 317.64892578 C465.02934052 318.42306824 465.8055072 319.19721069 466.60519409 319.99481201 C470.7407208 324.14799479 474.71854244 328.38235851 478.53814697 332.82859802 C480.59814877 335.22163956 482.74353271 337.53286278 484.88598633 339.85205078 C488.95958541 344.31828592 492.81926336 348.90876457 496.61254883 353.61376953 C498.78335086 356.26186517 501.00393256 358.85101501 503.25317383 361.43188477 C509.35771063 368.44676458 515.05916835 375.70390342 520.65942383 383.12548828 C522.902406 386.09549697 525.17783867 389.03520229 527.48754883 391.95361328 C534.66927409 401.03444829 541.40868841 410.30051528 547.87036133 419.90673828 C550.3249425 423.55238006 552.85432473 427.13386714 555.42529297 430.69799805 C563.52540581 441.94988469 570.77545266 453.71957264 578.01098633 465.53955078 C578.43976074 466.23757813 578.86853516 466.93560547 579.31030273 467.65478516 C581.92557177 471.92174339 584.47618354 476.22441954 587.01098633 480.53955078 C587.53595703 481.42707031 588.06092773 482.31458984 588.60180664 483.22900391 C598.0466066 499.22701782 606.84300508 515.45995921 615.23071289 532.03027344 C616.91286198 535.34612793 618.61228657 538.65253902 620.31567383 541.95751953 C639.08854847 578.62061235 654.48284035 616.87962638 667.19848633 656.03955078 C667.46711487 656.86618225 667.73574341 657.69281372 668.01251221 658.54449463 C670.6352877 666.65537349 673.15986236 674.79293393 675.43676758 683.00830078 C675.76717041 684.19875 676.09757324 685.38919922 676.43798828 686.61572266 C677.01098633 689.53955078 677.01098633 689.53955078 676.01098633 692.53955078 C671.71750788 686.70745377 667.85340303 680.68404372 664.13598633 674.47705078 C653.35914781 656.58137346 641.16728874 639.51895267 629.01098633 622.53955078 C628.2148291 621.42459229 628.2148291 621.42459229 627.40258789 620.28710938 C620.45014778 610.55980974 613.38104857 600.95489345 606.01098633 591.53955078 C605.14240093 590.42373994 604.2739137 589.30785268 603.40551758 588.19189453 C596.87280413 579.81829472 590.19799905 571.56370435 583.47875977 563.33935547 C582.19602501 561.76644784 580.9193922 560.18856795 579.64379883 558.60986328 C570.92055413 547.84160884 561.80905281 537.39610712 552.42504883 527.19970703 C550.51601127 525.09605885 548.64268758 522.97255493 546.78027344 520.828125 C535.43790924 507.85694712 523.27789861 495.64502952 511.08349609 483.48168945 C508.54837956 480.95199774 506.01873996 478.41691545 503.48950195 475.88134766 C501.85245316 474.24495876 500.21509467 472.60887961 498.57739258 470.97314453 C497.83453506 470.22826279 497.09167755 469.48338104 496.3263092 468.71592712 C492.27460502 464.68216643 488.13688013 460.81115921 483.79742432 457.08787537 C480.85028134 454.53355557 478.03486839 451.840352 475.19848633 449.16455078 C470.15187688 444.43758702 464.97764485 439.96445935 459.57739258 435.64111328 C457.0353927 433.55953651 454.61569298 431.38916698 452.19848633 429.16455078 C447.82397807 425.18271492 443.26569558 421.52212995 438.59448242 417.90063477 C434.77784065 414.93909595 431.01886916 411.91995249 427.29125977 408.84716797 C418.53396293 401.63706601 409.49588136 394.87012277 400.31225586 388.21435547 C398.22124777 386.69257364 396.14331989 385.155044 394.06958008 383.60986328 C371.29524119 366.75295463 347.35495797 351.0276443 323.01098633 336.53955078 C322.08527832 335.98686523 321.15957031 335.43417969 320.20581055 334.86474609 C305.35252572 326.02508627 290.27433112 317.64788577 275.01098633 309.53955078 C274.06932617 309.03713867 273.12766602 308.53472656 272.1574707 308.01708984 C193.12719353 265.92785353 107.82858389 235.49388868 -99.98901367 197.53955078 C-100.8014856 197.46542969 -101.61395752 197.39130859 -102.4510498 197.31494141 C-135.97130328 194.28398384 -169.36178772 194.18209315 -202.98901367 194.53955078 C-201.33937821 191.04168559 -199.4545966 188.76008861 -196.69995117 186.02001953 C-195.84014648 185.16214844 -194.9803418 184.30427734 -194.09448242 183.42041016 C-193.19342773 182.53160156 -192.29237305 181.64279297 -191.36401367 180.72705078 C-190.48616211 179.84984375 -189.60831055 178.97263672 -188.70385742 178.06884766 C-184.89347886 174.28394711 -181.07580865 170.55461511 -176.99682617 167.05908203 C-171.88551598 162.66681181 -167.21745446 157.83583147 -162.48901367 153.03955078 C-152.47188899 142.87870839 -152.47188899 142.87870839 -148.02026367 139.07080078 C-142.71844326 134.53021242 -137.8859498 129.50639559 -132.98901367 124.53955078 C-127.50084456 118.97303255 -122.01525487 113.48358602 -116.07104492 108.39892578 C-111.51038741 104.32599337 -107.28075238 99.89255836 -102.98901367 95.53955078 C-97.50084456 89.97303255 -92.01525487 84.48358602 -86.07104492 79.39892578 C-81.51038741 75.32599337 -77.28075238 70.89255836 -72.98901367 66.53955078 C-67.49067882 60.96272168 -61.99508583 55.46181465 -56.03979492 50.36767578 C-51.66109569 46.46437818 -47.60557771 42.21517599 -43.48901367 38.03955078 C-33.46876531 27.87553989 -33.46876531 27.87553989 -28.98510742 24.07470703 C-25.73894228 21.30271006 -22.83884251 18.31639929 -19.93041992 15.19189453 C-19.0493457 14.25796875 -18.16827148 13.32404297 -17.26049805 12.36181641 C-15.89683747 10.90967029 -14.53339386 9.45692021 -13.20068359 7.97631836 C-11.8873997 6.52349061 -10.53423894 5.10702602 -9.18041992 3.69189453 C-8.39868408 2.84618896 -7.61694824 2.0004834 -6.81152344 1.12915039 C-3.73684475 -0.60246737 -3.27612544 -0.65451674 0 0 Z " fill="#45AED7" transform="translate(1172.989013671875,1224.46044921875)"/>
<path d="M0 0 C253.99943182 0 253.99943182 0 276.5625 5.6875 C277.59004395 5.94241211 278.61758789 6.19732422 279.67626953 6.45996094 C307.71922502 13.66989912 332.99168201 25.86123159 354 46 C354.81984375 46.75667969 355.6396875 47.51335938 356.484375 48.29296875 C376.47355282 67.3199346 387.73045713 93.03123282 392 120 C392.18304687 121.14726562 392.36609375 122.29453125 392.5546875 123.4765625 C396.41509918 155.9071307 390.94772107 188.09216512 371.87890625 214.9921875 C369.68385026 217.77124921 367.3989855 220.39485169 365 223 C364.52046875 223.52190918 364.0409375 224.04381836 363.546875 224.58154297 C348.76287051 240.49021447 330.78065515 250.45247685 311 259 C312.0415625 259.3403125 313.083125 259.680625 314.15625 260.03125 C332.95639996 266.32671306 349.84037751 275.07779167 365 288 C365.9590625 288.81210938 366.918125 289.62421875 367.90625 290.4609375 C394.11018908 313.21743677 408.76520535 346.36806604 411.60375977 380.63671875 C413.78125487 413.92924145 406.81780376 447.95366424 385 474 C384.16726563 474.99644531 383.33453125 475.99289062 382.4765625 477.01953125 C358.79833728 504.46884717 323.43570106 517.8272854 288.875 525.25 C287.81240967 525.48412598 286.74981934 525.71825195 285.6550293 525.95947266 C192.33107323 544.93300887 95.23316572 531 0 531 C0 355.77 0 180.54 0 0 Z M42 35 C42 102.65 42 170.3 42 240 C74.13375 240.061875 106.2675 240.12375 139.375 240.1875 C149.47528809 240.21481201 159.57557617 240.24212402 169.98193359 240.27026367 C179.13313141 240.28030455 179.13313141 240.28030455 188.28433228 240.28633118 C192.32157463 240.28909637 196.35869544 240.30021784 200.39590454 240.31672668 C266.74890643 240.75192756 266.74890643 240.75192756 325 212 C325.99580078 211.22076172 325.99580078 211.22076172 327.01171875 210.42578125 C343.71481131 196.87297727 351.28535245 176.4704739 353.75 155.6875 C353.85408367 154.12624497 353.93746119 152.56347037 354 151 C354.0515625 150.1646875 354.103125 149.329375 354.15625 148.46875 C355.10569662 120.3018336 345.17532326 95.55750723 326.8515625 74.53515625 C299.37649317 45.47695095 257.31336685 36.0197527 218.83003759 34.93906307 C206.62125103 34.68631354 194.40657242 34.76053573 182.19602203 34.79743958 C177.73586267 34.80901102 173.27572632 34.8093755 168.81555176 34.81079102 C155.85618768 34.82119732 142.89684242 34.84911956 129.9375 34.875 C100.918125 34.91625 71.89875 34.9575 42 35 Z M42 280 C42 349.63 42 419.26 42 491 C73.865625 491.04125 105.73125 491.0825 138.5625 491.125 C148.58568604 491.14320801 158.60887207 491.16141602 168.93579102 491.18017578 C178.00188378 491.18686891 178.00188378 491.18686891 187.06797791 491.19088745 C191.07365685 491.192734 195.07928158 491.20016122 199.08494568 491.21115112 C230.10625117 491.46359524 230.10625117 491.46359524 261 489 C262.2129071 488.84564987 263.42581421 488.69129974 264.67547607 488.53227234 C267.34148301 488.16764758 269.978712 487.73602116 272.625 487.25 C273.55900635 487.08153564 274.4930127 486.91307129 275.45532227 486.73950195 C291.30307624 483.74445122 306.55578388 479.22019391 321 472 C321.60924316 471.69868164 322.21848633 471.39736328 322.84619141 471.08691406 C332.24180215 466.34773491 339.65159449 460.42157597 347 453 C347.81339844 452.20851563 348.62679687 451.41703125 349.46484375 450.6015625 C364.80348159 434.81718646 370.41764379 413.24809453 370.3125 391.75 C370.30758545 390.55922852 370.3026709 389.36845703 370.29760742 388.14160156 C370.181144 379.38594142 369.45083003 371.44395285 367 363 C366.67128906 361.78957031 366.34257812 360.57914063 366.00390625 359.33203125 C358.15427631 333.12132921 339.90591504 312.93960219 316 300 C301.51647766 292.30092244 286.38314713 287.22643319 270.375 283.75 C269.68486816 283.59885742 268.99473633 283.44771484 268.28369141 283.29199219 C253.41481426 280.27945499 238.64469144 279.71212987 223.52709961 279.77294922 C221.50254353 279.77356347 219.47798702 279.77329222 217.45343113 279.7722187 C212.08412302 279.77177145 206.71490601 279.78327243 201.3456192 279.79743958 C196.28741706 279.80892041 191.22923588 279.80937072 186.17102051 279.81079102 C171.42650184 279.82124101 156.68199973 279.84916354 141.9375 279.875 C108.958125 279.91625 75.97875 279.9575 42 280 Z " fill="#269AC0" transform="translate(1795,3289)"/>
<path d="M0 0 C286.59440559 0 286.59440559 0 354 54 C354.96164062 54.75796875 355.92328125 55.5159375 356.9140625 56.296875 C372.20432922 68.76134559 386.49044554 82.95283778 398 99 C399.15822266 100.59328125 399.15822266 100.59328125 400.33984375 102.21875 C409.05365914 114.49256859 416.55732304 127.35634445 423.02050781 140.94189453 C423.66694193 142.30017959 424.3198181 143.65541984 424.97949219 145.00732422 C436.01828004 167.72745624 442.55320548 192.2165319 447 217 C447.17789062 217.94617187 447.35578125 218.89234375 447.5390625 219.8671875 C450.3292944 235.32418645 450.30687064 250.90587266 450.375 266.5625 C450.38705475 268.10410294 450.38705475 268.10410294 450.39935303 269.67684937 C450.51371527 288.98308296 448.89281437 308.10948229 444.75 327 C444.54093018 327.97163086 444.33186035 328.94326172 444.11645508 329.94433594 C440.05928672 348.2155332 434.5112781 365.85780371 427 383 C426.65211426 383.79744629 426.30422852 384.59489258 425.94580078 385.41650391 C410.43400355 420.53634871 385.63865582 453.66362154 355 477 C354.38624512 477.47373047 353.77249023 477.94746094 353.14013672 478.43554688 C253.27426994 555.04365556 115.72398838 531 0 531 C0 355.77 0 180.54 0 0 Z M42 39 C42 188.16 42 337.32 42 491 C204.55142309 500.02639544 204.55142309 500.02639544 342 431 C342.9827632 430.08039807 343.9658395 429.16113063 344.94921875 428.2421875 C376.79000322 397.99057653 395.53518313 355.18285833 404.25 312.75 C404.40114258 312.01966553 404.55228516 311.28933105 404.70800781 310.53686523 C407.64144508 295.34821571 408.37585315 280.30725031 408.3125 264.875 C408.31034485 263.92779083 408.3081897 262.98058167 408.30596924 262.00466919 C408.25417853 247.80488351 407.8019153 233.96135515 405 220 C404.80664062 218.99372559 404.61328125 217.98745117 404.4140625 216.95068359 C396.49322196 176.64362856 379.41225269 138.70423885 351.30859375 108.49609375 C349.26946311 106.29134844 347.31479213 104.04168186 345.375 101.75 C341.88380532 97.76006322 338.08472468 94.37151878 334 91 C333.24251465 90.35804688 333.24251465 90.35804688 332.46972656 89.703125 C318.00501665 77.46569465 302.15235092 67.98401633 285 60 C283.86433594 59.46761719 282.72867188 58.93523438 281.55859375 58.38671875 C261.66282753 49.46474711 240.16734871 44.2497111 218.625 41.25 C217.79508545 41.13438721 216.9651709 41.01877441 216.11010742 40.8996582 C158.54092266 33.52071744 100.0401568 39 42 39 Z " fill="#269AC0" transform="translate(737,3289)"/>
<path d="M0 0 C121.11 0 242.22 0 367 0 C367 12.87 367 25.74 367 39 C259.42 39 151.84 39 41 39 C41 106.98 41 174.96 41 245 C143.63 245 246.26 245 352 245 C352 257.54 352 270.08 352 283 C249.37 283 146.74 283 41 283 C41 351.64 41 420.28 41 491 C151.55 491 262.1 491 376 491 C376 504.2 376 517.4 376 531 C251.92 531 127.84 531 0 531 C0 355.77 0 180.54 0 0 Z " fill="#269AC0" transform="translate(1303,3289)"/>
<path d="M0 0 C0.84046875 0.71800781 1.6809375 1.43601562 2.546875 2.17578125 C18.35035745 15.99155861 30.39513901 32.42842833 40 51 C40.31420898 51.60247559 40.62841797 52.20495117 40.95214844 52.82568359 C48.48173978 67.47102 53.4003022 83.11194131 56.8125 99.1875 C57.10471436 100.55539673 57.10471436 100.55539673 57.40283203 101.95092773 C60.48756461 117.42215257 61.38312062 132.88283354 61.3125 148.625 C61.31034485 149.49673859 61.3081897 150.36847717 61.30596924 151.26663208 C61.16507471 186.93453065 54.27510276 221.53377377 37 253 C36.65211426 253.63389648 36.30422852 254.26779297 35.94580078 254.92089844 C26.54707611 271.79128661 14.07238754 287.84143079 -1 300 C-1.90878906 300.74636719 -2.81757813 301.49273438 -3.75390625 302.26171875 C-26.83058059 320.65951794 -53.00825276 332.42999272 -81.75 338.8125 C-82.62285645 339.00739014 -83.49571289 339.20228027 -84.39501953 339.40307617 C-98.94247624 342.44194372 -113.42830788 343.38433342 -128.25 343.3125 C-129.05704376 343.31034485 -129.86408752 343.3081897 -130.69558716 343.30596924 C-143.32475098 343.25203775 -155.63177814 342.7736915 -168 340 C-168.88606934 339.80132324 -169.77213867 339.60264648 -170.68505859 339.39794922 C-199.25065023 332.73680252 -225.15427418 320.00172448 -246.7578125 300.0546875 C-248.69106313 298.28310243 -250.66289334 296.60217659 -252.6875 294.9375 C-258.98283762 289.53108736 -263.91382504 282.93637412 -268.9375 276.375 C-269.41533936 275.76092285 -269.89317871 275.1468457 -270.38549805 274.51416016 C-275.34327041 267.94097128 -278.80557081 261.34025108 -283 254 C-283.33 341.12 -283.66 428.24 -284 518 C-295.88 518 -307.76 518 -320 518 C-320 334.19 -320 150.38 -320 -39 C-307.79 -39 -295.58 -39 -283 -39 C-282.67 -11.28 -282.34 16.44 -282 45 C-279.03 40.05 -276.06 35.1 -273 30 C-270.06115816 26.20399596 -267.16268447 22.58620917 -264 19 C-263.26910156 18.15953125 -262.53820313 17.3190625 -261.78515625 16.453125 C-259.55895286 13.93348531 -257.29169373 11.46014301 -255 9 C-254.27683594 8.21109375 -253.55367187 7.4221875 -252.80859375 6.609375 C-229.8126107 -17.51500654 -198.95426145 -32.06693346 -167 -40 C-165.99501465 -40.25305908 -165.99501465 -40.25305908 -164.96972656 -40.51123047 C-108.49889824 -54.22304425 -43.6809169 -37.8523283 0 0 Z M-229 28 C-229.85078125 28.71800781 -230.7015625 29.43601562 -231.578125 30.17578125 C-237.82328221 35.56845534 -243.009542 41.43989367 -248 48 C-248.40750488 48.53254395 -248.81500977 49.06508789 -249.23486328 49.61376953 C-275.81733787 84.62408523 -285.30079392 129.79203362 -279.74609375 173.09375 C-273.80118828 214.31620811 -254.14409139 251.99191815 -220.63671875 277.359375 C-195.67634411 295.70082244 -165.89392402 305.71609666 -135 307 C-134.11054688 307.04125 -133.22109375 307.0825 -132.3046875 307.125 C-91.46335084 308.05585668 -50.56936227 294.75535995 -20.61669922 266.58911133 C7.78206624 239.09983744 21.87830633 199.56589677 23.11010742 160.50878906 C23.76755549 118.11032354 17.53606947 75.35043702 -11 42 C-11.84046875 40.99710938 -12.6809375 39.99421875 -13.546875 38.9609375 C-39.8906927 8.36032936 -78.69570781 -5.00385314 -118 -8 C-158.42092886 -10.3862458 -198.34941513 1.10934713 -229 28 Z " fill="#269AC0" transform="translate(2959,3484)"/>
<path d="M0 0 C0.80726532 0.00182281 1.61453064 0.00364563 2.44625854 0.00552368 C55.26776679 0.20560268 103.56327891 19.77443706 140.87109375 57.30078125 C176.89235863 94.42850136 192.55693989 146.98887203 192.10717773 197.89208984 C190.81257568 252.60366412 172.28335805 300.7205704 133.55078125 339.6484375 C96.28228638 374.7023359 43.85498228 389.20601518 -6.33203125 388.2578125 C-33.7401769 387.35807743 -60.08022874 381.50214409 -85.125 370.3125 C-85.8267334 370.00086914 -86.5284668 369.68923828 -87.25146484 369.36816406 C-128.90782671 350.53761541 -160.53171646 315.09238951 -177.109375 272.80126953 C-196.98059738 219.69257733 -195.29892946 157.53348814 -172.29052734 105.68554688 C-164.0500433 87.79756653 -152.66433831 71.57864328 -139.125 57.3125 C-138.63966797 56.78930176 -138.15433594 56.26610352 -137.65429688 55.72705078 C-102.39634076 17.88045291 -51.00242253 -0.24051841 0 0 Z M-34.125 39.3125 C-34.94145996 39.51117676 -35.75791992 39.70985352 -36.59912109 39.91455078 C-74.36918915 49.2712108 -108.12844293 71.64231778 -128.56274414 105.17675781 C-129.76933952 107.21160731 -130.95317708 109.25744858 -132.125 111.3125 C-132.48190918 111.93431152 -132.83881836 112.55612305 -133.20654297 113.19677734 C-145.77382172 135.5156505 -152.37655024 161.76758433 -153.125 187.3125 C-153.16496094 188.49972656 -153.20492187 189.68695312 -153.24609375 190.91015625 C-153.8611761 227.05528971 -145.1296426 264.69288088 -122.125 293.3125 C-121.72587402 293.81700684 -121.32674805 294.32151367 -120.91552734 294.84130859 C-95.46850288 326.8371282 -59.19884207 344.71611055 -18.90625 349.8984375 C24.21579678 354.32673279 67.97732971 343.54850606 101.82080078 316.05322266 C126.2332606 295.36617268 142.06013719 268.73204827 149.625 237.75 C149.92337769 236.52917725 149.92337769 236.52917725 150.2277832 235.28369141 C153.20156473 222.35010191 154.25806661 209.42888961 154.1875 196.1875 C154.18567719 195.47116394 154.18385437 194.75482788 154.18197632 194.01678467 C154.13045456 181.92444317 153.38648652 170.16543098 150.875 158.3125 C150.70871094 157.52311035 150.54242187 156.7337207 150.37109375 155.92041016 C144.09214713 127.33376153 130.94583905 102.5502483 110.875 81.3125 C110.07835938 80.43980469 109.28171875 79.56710938 108.4609375 78.66796875 C84.4274239 53.29119231 46.82847823 37.04108498 11.8868866 36.04772949 C8.31994607 35.9861563 4.7548477 35.98153603 1.1875 36 C0.06174057 36.00323273 0.06174057 36.00323273 -1.08676147 36.00653076 C-12.34903835 36.05839543 -23.17351632 36.52389297 -34.125 39.3125 Z " fill="#269AC0" transform="translate(3571.125,3438.6875)"/>
<path d="M0 0 C140.58 0 281.16 0 426 0 C426 12.54 426 25.08 426 38 C362.64 38 299.28 38 234 38 C234 200.69 234 363.38 234 531 C220.14 531 206.28 531 192 531 C192 368.31 192 205.62 192 38 C128.64 38 65.28 38 0 38 C0 25.46 0 12.92 0 0 Z " fill="#269AC0" transform="translate(2234,3289)"/>
<path d="M0 0 C0.70833984 0.16628906 1.41667969 0.33257813 2.14648438 0.50390625 C17.25594348 4.2092232 32.02090673 10.3907522 45 19 C43.17340834 24.02825793 40.62801226 28.66087196 38.125 33.375 C37.69058594 34.2 37.25617187 35.025 36.80859375 35.875 C34.29189762 40.63631699 31.70031822 45.34038112 29 50 C24.75063161 49.39741922 21.68150832 47.8732968 17.9375 45.8125 C-9.5999253 31.41963561 -42.60153597 30.4158129 -72 39.1875 C-103.99328243 49.40730146 -129.41250507 71.27372734 -145.11035156 100.85693359 C-147.78463938 106.18535129 -149.87544884 111.67857272 -151.8125 117.3125 C-152.0904541 118.10462891 -152.3684082 118.89675781 -152.65478516 119.71289062 C-157.93149455 135.91235634 -158.44611776 152.28442131 -158.43237305 169.15673828 C-158.44141059 171.4253797 -158.45174263 173.69401628 -158.46325684 175.96264648 C-158.49061895 182.06470498 -158.50008286 188.1666703 -158.50611091 194.26878214 C-158.51554916 200.6669264 -158.54175661 207.06500253 -158.56611633 213.46310425 C-158.60470481 224.18356779 -158.63311936 234.90400155 -158.65356445 245.62451172 C-158.67463302 256.65709081 -158.70195883 267.68962576 -158.73754883 278.72216797 C-158.73974765 279.40444793 -158.74194648 280.08672789 -158.74421193 280.789683 C-158.75528305 284.2131483 -158.76647558 287.6366132 -158.77772844 291.06007791 C-158.87063703 319.37334746 -158.94154714 347.68664009 -159 376 C-171.54 376 -184.08 376 -197 376 C-197 252.25 -197 128.5 -197 1 C-185.12 1 -173.24 1 -161 1 C-160.01 31.69 -160.01 31.69 -159 63 C-155.535 57.06 -155.535 57.06 -152 51 C-149.38741306 47.57097964 -146.78478139 44.27392463 -144 41 C-143.44699219 40.31292969 -142.89398437 39.62585937 -142.32421875 38.91796875 C-121.27565666 13.44870627 -86.31254474 1.09109721 -54.44140625 -2.55859375 C-36.52796898 -4.24773989 -17.56150038 -4.13403253 0 0 Z " fill="#269AC0" transform="translate(3315,3444)"/>
</svg>
